<svg width="12" height="12" viewBox="0 0 12 12" fill="none" xmlns="http://www.w3.org/2000/svg">
<path d="M9.76098 2.23426C8.67432 1.1476 7.13432 0.520931 5.44098 0.694264C2.99432 0.940931 0.980984 2.9276 0.707651 5.37426C0.340984 8.6076 2.84098 11.3343 5.99432 11.3343C8.12098 11.3343 9.94765 10.0876 10.801 8.29426C11.0143 7.8476 10.6943 7.33426 10.201 7.33426C9.95432 7.33426 9.72098 7.4676 9.61432 7.6876C8.86098 9.3076 7.05432 10.3343 5.08098 9.89426C3.60098 9.5676 2.40765 8.36093 2.09432 6.88093C1.53432 4.29426 3.50098 2.00093 5.99432 2.00093C7.10098 2.00093 8.08765 2.46093 8.80765 3.1876L7.80098 4.19426C7.38098 4.61426 7.67432 5.33426 8.26765 5.33426H10.661C11.0277 5.33426 11.3277 5.03426 11.3277 4.6676V2.27426C11.3277 1.68093 10.6077 1.38093 10.1877 1.80093L9.76098 2.23426Z" fill="#666666"/>
</svg>
