<svg width="497" height="290" viewBox="0 0 497 290" fill="none" xmlns="http://www.w3.org/2000/svg">
<path fill-rule="evenodd" clip-rule="evenodd" d="M110.824 227.484C104.807 225.12 104.265 216.838 109.923 213.714L146.971 193.252L147.012 220.305C147.015 221.651 147.735 222.894 148.904 223.566L256.593 284.768L110.824 227.484Z" fill="black" fill-opacity="0.2"/>
<path fill-rule="evenodd" clip-rule="evenodd" d="M153.119 80.5367L287.843 3.65065C290.264 2.26931 293.405 1.61142 296.124 2.23469C299.942 3.11147 303.522 4.30854 303.514 7.63883L303.718 132.389L291.865 139.367C295.744 141.247 414.004 198.591 414.199 198.732L414.485 203.545C414.485 205.621 413.382 207.535 411.579 208.577C391.448 220.193 273.526 288.104 273.526 288.104C269.645 290.339 264.864 290.339 260.984 288.104L148.904 223.566C147.734 222.893 147.014 221.651 147.012 220.305L146.817 91.3376C146.828 86.8733 149.231 82.7553 153.119 80.5367Z" fill="#C6C6C6"/>
<path fill-rule="evenodd" clip-rule="evenodd" d="M150.787 219.882L303.837 132.885L304.152 8.4088C304.162 4.81263 300.262 2.55452 297.13 4.34147L155.994 84.8868C152.921 86.6404 151.023 89.8952 151.013 93.4221L150.787 219.882Z" fill="#666666"/>
<path fill-rule="evenodd" clip-rule="evenodd" d="M297.853 11.5693L157.737 91.6905L157.445 208.876L297.853 128.58V11.5693Z" fill="#6C0101"/>
<path fill-rule="evenodd" clip-rule="evenodd" d="M150.875 219.872L303.844 131.987L412.023 194.275C415.149 196.075 415.148 200.568 412.023 202.366L271.195 283.443C268.129 285.209 264.35 285.209 261.283 283.443L150.875 219.872Z" fill="#F4F4F4"/>
<path fill-rule="evenodd" clip-rule="evenodd" d="M193.212 222.577C190.166 224.319 188.643 225.191 185.596 226.934C182.515 225.198 180.976 224.331 177.896 222.598C180.943 220.855 182.466 219.983 185.512 218.24C188.592 219.976 190.132 220.843 193.212 222.577Z" fill="#C6C6C6"/>
<path fill-rule="evenodd" clip-rule="evenodd" d="M204.456 216.146C201.41 217.889 199.887 218.761 196.841 220.503C193.761 218.768 192.22 217.901 189.141 216.167C192.187 214.424 193.71 213.552 196.756 211.809C199.837 213.544 201.376 214.411 204.456 216.146Z" fill="#C6C6C6"/>
<path fill-rule="evenodd" clip-rule="evenodd" d="M215.694 209.714C212.647 211.456 211.124 212.328 208.077 214.071C204.997 212.337 203.457 211.47 200.377 209.735C203.424 207.991 204.948 207.121 207.994 205.378C211.073 207.112 212.614 207.98 215.694 209.714Z" fill="#C6C6C6"/>
<path fill-rule="evenodd" clip-rule="evenodd" d="M226.94 203.284C223.892 205.026 222.369 205.898 219.323 207.641C216.243 205.907 214.703 205.039 211.623 203.304C214.669 201.561 216.192 200.689 219.24 198.947C222.32 200.681 223.86 201.548 226.94 203.284Z" fill="#C6C6C6"/>
<path fill-rule="evenodd" clip-rule="evenodd" d="M238.182 196.851C235.136 198.594 233.611 199.466 230.565 201.209C227.484 199.475 225.945 198.607 222.865 196.873C225.911 195.129 227.435 194.259 230.481 192.515C233.562 194.25 235.102 195.117 238.182 196.851Z" fill="#C6C6C6"/>
<path fill-rule="evenodd" clip-rule="evenodd" d="M249.424 190.418C246.377 192.162 244.854 193.034 241.807 194.776C238.728 193.041 237.187 192.174 234.107 190.441C237.154 188.698 238.678 187.826 241.724 186.083C244.804 187.818 246.344 188.685 249.424 190.418Z" fill="#C6C6C6"/>
<path fill-rule="evenodd" clip-rule="evenodd" d="M260.668 183.989C257.621 185.731 256.098 186.603 253.052 188.346C249.972 186.611 248.431 185.743 245.352 184.01C248.398 182.267 249.921 181.394 252.968 179.652C256.048 181.387 257.587 182.254 260.668 183.989Z" fill="#C6C6C6"/>
<path fill-rule="evenodd" clip-rule="evenodd" d="M271.907 177.556C268.859 179.299 267.336 180.171 264.29 181.913C261.21 180.179 259.67 179.312 256.59 177.577C259.636 175.834 261.159 174.963 264.207 173.219C267.286 174.954 268.827 175.823 271.907 177.556Z" fill="#C6C6C6"/>
<path fill-rule="evenodd" clip-rule="evenodd" d="M283.153 171.125C280.106 172.869 278.582 173.74 275.536 175.482C272.455 173.748 270.916 172.882 267.836 171.147C270.882 169.404 272.405 168.532 275.453 166.79C278.532 168.524 280.073 169.39 283.153 171.125Z" fill="#C6C6C6"/>
<path fill-rule="evenodd" clip-rule="evenodd" d="M294.395 164.695C291.349 166.437 289.826 167.309 286.779 169.051C283.7 167.318 282.159 166.449 279.078 164.714C282.126 162.972 283.649 162.1 286.695 160.358C289.776 162.093 291.315 162.96 294.395 164.695Z" fill="#C6C6C6"/>
<path fill-rule="evenodd" clip-rule="evenodd" d="M305.636 158.263C302.59 160.006 301.068 160.877 298.02 162.621C294.941 160.885 293.4 160.018 290.32 158.284C293.368 156.541 294.891 155.67 297.937 153.927C301.017 155.661 302.556 156.529 305.636 158.263Z" fill="#C6C6C6"/>
<path fill-rule="evenodd" clip-rule="evenodd" d="M316.878 151.832C313.832 153.575 312.308 154.445 309.262 156.189C306.182 154.454 304.643 153.587 301.562 151.852C304.608 150.11 306.132 149.239 309.178 147.495C312.257 149.23 313.799 150.097 316.878 151.832Z" fill="#C6C6C6"/>
<path fill-rule="evenodd" clip-rule="evenodd" d="M204.02 228.663C200.974 230.406 199.451 231.277 196.403 233.021C193.323 231.285 191.783 230.418 188.703 228.684C191.749 226.942 193.272 226.069 196.319 224.326C199.398 226.061 200.94 226.929 204.02 228.663Z" fill="#C6C6C6"/>
<path fill-rule="evenodd" clip-rule="evenodd" d="M215.264 222.233C212.218 223.975 210.695 224.846 207.647 226.59C204.567 224.855 203.027 223.988 199.947 222.253C202.993 220.509 204.517 219.639 207.564 217.896C210.644 219.63 212.184 220.498 215.264 222.233Z" fill="#C6C6C6"/>
<path fill-rule="evenodd" clip-rule="evenodd" d="M226.504 215.802C223.456 217.544 221.933 218.416 218.887 220.159C215.807 218.425 214.265 217.558 211.186 215.822C214.233 214.079 215.756 213.207 218.802 211.465C221.883 213.2 223.423 214.067 226.504 215.802Z" fill="#C6C6C6"/>
<path fill-rule="evenodd" clip-rule="evenodd" d="M237.748 209.37C234.7 211.113 233.177 211.985 230.131 213.727C227.05 211.992 225.509 211.124 222.43 209.39C225.476 207.648 226.999 206.776 230.046 205.033C233.126 206.767 234.667 207.634 237.748 209.37Z" fill="#C6C6C6"/>
<path fill-rule="evenodd" clip-rule="evenodd" d="M248.99 202.937C245.942 204.681 244.419 205.552 241.372 207.295C238.292 205.56 236.752 204.693 233.672 202.958C236.718 201.215 238.241 200.344 241.289 198.601C244.368 200.335 245.909 201.203 248.99 202.937Z" fill="#C6C6C6"/>
<path fill-rule="evenodd" clip-rule="evenodd" d="M260.234 196.506C257.187 198.25 255.663 199.121 252.617 200.864C249.536 199.129 247.996 198.263 244.916 196.529C247.963 194.785 249.487 193.914 252.533 192.17C255.614 193.906 257.153 194.773 260.234 196.506Z" fill="#C6C6C6"/>
<path fill-rule="evenodd" clip-rule="evenodd" d="M271.473 190.076C268.427 191.818 266.904 192.69 263.857 194.433C260.776 192.698 259.236 191.831 256.156 190.097C259.202 188.352 260.727 187.481 263.773 185.739C266.853 187.473 268.393 188.341 271.473 190.076Z" fill="#C6C6C6"/>
<path fill-rule="evenodd" clip-rule="evenodd" d="M282.718 183.644C279.671 185.386 278.148 186.258 275.102 188C272.021 186.267 270.48 185.398 267.4 183.663C270.447 181.921 271.971 181.049 275.017 179.307C278.097 181.041 279.637 181.909 282.718 183.644Z" fill="#C6C6C6"/>
<path fill-rule="evenodd" clip-rule="evenodd" d="M293.961 177.212C290.913 178.956 289.39 179.826 286.343 181.569C283.263 179.835 281.722 178.968 278.643 177.232C281.689 175.489 283.212 174.619 286.259 172.875C289.34 174.61 290.88 175.477 293.961 177.212Z" fill="#C6C6C6"/>
<path fill-rule="evenodd" clip-rule="evenodd" d="M305.203 170.78C302.157 172.524 300.632 173.396 297.587 175.138C294.506 173.403 292.966 172.535 289.885 170.801C292.932 169.059 294.455 168.187 297.502 166.444C300.583 168.178 302.122 169.046 305.203 170.78Z" fill="#C6C6C6"/>
<path fill-rule="evenodd" clip-rule="evenodd" d="M316.446 164.349C313.4 166.091 311.877 166.963 308.831 168.705C305.75 166.97 304.211 166.103 301.131 164.368C304.177 162.626 305.699 161.755 308.745 160.012C311.826 161.747 313.367 162.614 316.446 164.349Z" fill="#C6C6C6"/>
<path fill-rule="evenodd" clip-rule="evenodd" d="M327.684 157.919C322.578 160.84 320.023 162.302 314.916 165.223C311.835 163.489 310.295 162.622 307.215 160.887C312.323 157.965 314.876 156.504 319.984 153.582C323.064 155.317 324.605 156.184 327.684 157.919Z" fill="#C6C6C6"/>
<path fill-rule="evenodd" clip-rule="evenodd" d="M219.863 231.872C214.803 234.767 212.273 236.214 207.214 239.107C204.134 237.372 202.593 236.505 199.514 234.772C204.572 231.877 207.102 230.43 212.162 227.535C215.241 229.27 216.782 230.137 219.863 231.872Z" fill="#C6C6C6"/>
<path fill-rule="evenodd" clip-rule="evenodd" d="M226.069 228.32C223.023 230.062 221.499 230.934 218.453 232.676C215.372 230.941 213.832 230.075 210.752 228.339C213.798 226.596 215.321 225.725 218.368 223.983C221.448 225.717 222.989 226.583 226.069 228.32Z" fill="#C6C6C6"/>
<path fill-rule="evenodd" clip-rule="evenodd" d="M237.312 221.888C234.265 223.631 232.742 224.502 229.695 226.244C226.614 224.511 225.075 223.644 221.994 221.907C225.04 220.165 226.565 219.294 229.611 217.551C232.691 219.286 234.231 220.153 237.312 221.888Z" fill="#C6C6C6"/>
<path fill-rule="evenodd" clip-rule="evenodd" d="M248.556 215.457C245.509 217.201 243.986 218.073 240.938 219.815C237.859 218.08 236.318 217.212 233.238 215.478C236.285 213.736 237.808 212.864 240.855 211.121C243.935 212.855 245.475 213.722 248.556 215.457Z" fill="#C6C6C6"/>
<path fill-rule="evenodd" clip-rule="evenodd" d="M259.798 209.024C256.751 210.768 255.228 211.639 252.18 213.382C249.101 211.647 247.56 210.78 244.48 209.045C247.527 207.303 249.05 206.431 252.097 204.687C255.177 206.422 256.717 207.291 259.798 209.024Z" fill="#C6C6C6"/>
<path fill-rule="evenodd" clip-rule="evenodd" d="M271.042 202.593C267.994 204.337 266.471 205.207 263.425 206.951C260.344 205.216 258.804 204.349 255.723 202.614C258.77 200.871 260.293 200 263.341 198.256C266.42 199.992 267.961 200.859 271.042 202.593Z" fill="#C6C6C6"/>
<path fill-rule="evenodd" clip-rule="evenodd" d="M282.282 196.162C279.235 197.904 277.712 198.776 274.665 200.518C271.585 198.784 270.045 197.916 266.965 196.181C270.011 194.439 271.534 193.567 274.582 191.825C277.661 193.558 279.202 194.426 282.282 196.162Z" fill="#C6C6C6"/>
<path fill-rule="evenodd" clip-rule="evenodd" d="M293.527 189.731C290.48 191.473 288.956 192.345 285.91 194.088C282.829 192.354 281.289 191.487 278.209 189.751C281.255 188.008 282.778 187.136 285.826 185.394C288.906 187.128 290.446 187.996 293.527 189.731Z" fill="#C6C6C6"/>
<path fill-rule="evenodd" clip-rule="evenodd" d="M304.768 183.299C301.722 185.042 300.199 185.913 297.151 187.657C294.071 185.922 292.531 185.054 289.451 183.318C292.497 181.576 294.021 180.705 297.068 178.962C300.148 180.697 301.688 181.564 304.768 183.299Z" fill="#C6C6C6"/>
<path fill-rule="evenodd" clip-rule="evenodd" d="M316.01 176.867C312.964 178.611 311.44 179.483 308.393 181.225C305.314 179.49 303.773 178.622 300.693 176.888C303.74 175.146 305.264 174.274 308.31 172.53C311.39 174.265 312.929 175.133 316.01 176.867Z" fill="#C6C6C6"/>
<path fill-rule="evenodd" clip-rule="evenodd" d="M327.253 170.437C324.207 172.179 322.684 173.05 319.637 174.795C316.556 173.059 315.017 172.192 311.938 170.457C314.984 168.714 316.506 167.842 319.552 166.1C322.633 167.835 324.173 168.702 327.253 170.437Z" fill="#C6C6C6"/>
<path fill-rule="evenodd" clip-rule="evenodd" d="M338.493 164.006C335.446 165.748 333.923 166.619 330.877 168.361C327.797 166.627 326.257 165.761 323.176 164.026C326.222 162.282 327.746 161.411 330.793 159.669C333.872 161.403 335.413 162.271 338.493 164.006Z" fill="#C6C6C6"/>
<path fill-rule="evenodd" clip-rule="evenodd" d="M225.635 240.838C222.589 242.58 221.066 243.452 218.018 245.194C214.939 243.459 213.398 242.592 210.318 240.857C213.365 239.115 214.888 238.243 217.934 236.501C221.014 238.234 222.554 239.103 225.635 240.838Z" fill="#C6C6C6"/>
<path fill-rule="evenodd" clip-rule="evenodd" d="M236.877 234.407C233.831 236.15 232.308 237.022 229.262 238.764C226.181 237.029 224.64 236.162 221.561 234.427C224.607 232.685 226.13 231.813 229.176 230.07C232.257 231.804 233.796 232.672 236.877 234.407Z" fill="#C6C6C6"/>
<path fill-rule="evenodd" clip-rule="evenodd" d="M248.121 227.975C245.075 229.719 243.552 230.59 240.506 232.332C237.425 230.598 235.886 229.73 232.805 227.995C235.852 226.253 237.375 225.382 240.421 223.638C243.501 225.373 245.042 226.24 248.121 227.975Z" fill="#C6C6C6"/>
<path fill-rule="evenodd" clip-rule="evenodd" d="M259.363 221.543C256.315 223.286 254.792 224.159 251.745 225.901C248.665 224.166 247.125 223.298 244.045 221.564C247.091 219.822 248.614 218.95 251.662 217.206C254.741 218.941 256.282 219.809 259.363 221.543Z" fill="#C6C6C6"/>
<path fill-rule="evenodd" clip-rule="evenodd" d="M270.608 215.112C267.562 216.856 266.038 217.726 262.991 219.47C259.911 217.735 258.371 216.868 255.291 215.133C258.337 213.391 259.862 212.519 262.908 210.775C265.988 212.511 267.528 213.378 270.608 215.112Z" fill="#C6C6C6"/>
<path fill-rule="evenodd" clip-rule="evenodd" d="M281.848 208.68C278.802 210.423 277.279 211.294 274.231 213.038C271.151 211.302 269.611 210.436 266.531 208.702C269.577 206.957 271.102 206.086 274.148 204.344C277.228 206.078 278.768 206.946 281.848 208.68Z" fill="#C6C6C6"/>
<path fill-rule="evenodd" clip-rule="evenodd" d="M293.09 202.25C290.044 203.992 288.521 204.864 285.473 206.606C282.394 204.873 280.853 204.004 277.773 202.269C280.82 200.527 282.343 199.655 285.39 197.913C288.47 199.646 290.01 200.515 293.09 202.25Z" fill="#C6C6C6"/>
<path fill-rule="evenodd" clip-rule="evenodd" d="M304.336 195.818C301.289 197.56 299.765 198.432 296.718 200.174C293.638 198.44 292.097 197.572 289.018 195.837C292.064 194.095 293.587 193.223 296.634 191.481C299.714 193.216 301.255 194.082 304.336 195.818Z" fill="#C6C6C6"/>
<path fill-rule="evenodd" clip-rule="evenodd" d="M315.577 189.386C312.53 191.13 311.007 192 307.961 193.744C304.88 192.008 303.34 191.141 300.26 189.407C303.306 187.663 304.829 186.793 307.877 185.049C310.958 186.784 312.497 187.651 315.577 189.386Z" fill="#C6C6C6"/>
<path fill-rule="evenodd" clip-rule="evenodd" d="M326.821 182.953C323.774 184.696 322.25 185.568 319.204 187.311C316.124 185.576 314.584 184.708 311.504 182.974C314.55 181.232 316.073 180.36 319.121 178.616C322.2 180.353 323.74 181.219 326.821 182.953Z" fill="#C6C6C6"/>
<path fill-rule="evenodd" clip-rule="evenodd" d="M342.917 173.744C337.928 176.599 335.433 178.025 330.444 180.879C327.363 179.144 325.824 178.277 322.744 176.544C327.732 173.688 330.227 172.261 335.217 169.407C338.297 171.142 339.836 172.01 342.917 173.744Z" fill="#C6C6C6"/>
<path fill-rule="evenodd" clip-rule="evenodd" d="M349.301 170.092C346.255 171.835 344.733 172.705 341.684 174.448C338.606 172.714 337.065 171.847 333.984 170.111C337.031 168.369 338.555 167.498 341.601 165.755C344.682 167.489 346.221 168.356 349.301 170.092Z" fill="#C6C6C6"/>
<path fill-rule="evenodd" clip-rule="evenodd" d="M237.94 247.765C234.894 249.509 233.37 250.379 230.324 252.122C227.245 250.387 225.704 249.52 222.623 247.786C225.671 246.044 227.194 245.172 230.24 243.429C233.32 245.163 234.86 246.03 237.94 247.765Z" fill="#C6C6C6"/>
<path fill-rule="evenodd" clip-rule="evenodd" d="M249.179 241.333C246.133 243.076 244.609 243.946 241.563 245.69C238.482 243.955 236.943 243.088 233.863 241.354C236.91 239.611 238.433 238.74 241.479 236.996C244.559 238.731 246.099 239.598 249.179 241.333Z" fill="#C6C6C6"/>
<path fill-rule="evenodd" clip-rule="evenodd" d="M260.424 234.902C257.378 236.645 255.854 237.516 252.807 239.259C249.728 237.525 248.187 236.658 245.107 234.923C248.154 233.179 249.677 232.309 252.723 230.565C255.804 232.3 257.344 233.168 260.424 234.902Z" fill="#C6C6C6"/>
<path fill-rule="evenodd" clip-rule="evenodd" d="M327.878 196.313C306.602 208.486 285.325 220.657 264.049 232.829C260.969 231.094 259.429 230.227 256.348 228.492C277.625 216.321 298.902 204.149 320.178 191.976C323.259 193.711 324.8 194.579 327.878 196.313Z" fill="#C6C6C6"/>
<path fill-rule="evenodd" clip-rule="evenodd" d="M339.121 189.883C336.075 191.626 334.551 192.497 331.505 194.24C328.425 192.505 326.886 191.638 323.805 189.903C326.851 188.16 328.375 187.289 331.421 185.546C334.501 187.28 336.042 188.148 339.121 189.883Z" fill="#C6C6C6"/>
<path fill-rule="evenodd" clip-rule="evenodd" d="M350.364 183.451C347.317 185.194 345.793 186.065 342.747 187.807C339.666 186.074 338.127 185.205 335.047 183.472C338.093 181.728 339.616 180.857 342.664 179.115C345.743 180.849 347.283 181.716 350.364 183.451Z" fill="#C6C6C6"/>
<path fill-rule="evenodd" clip-rule="evenodd" d="M361.603 177.019C358.556 178.762 357.033 179.634 353.987 181.377C350.907 179.642 349.367 178.775 346.287 177.04C349.335 175.297 350.856 174.427 353.903 172.684C356.984 174.418 358.523 175.285 361.603 177.019Z" fill="#C6C6C6"/>
<path fill-rule="evenodd" clip-rule="evenodd" d="M275.721 235.952L328.208 205.763L358.201 224.17L305.734 254.37L275.721 235.952Z" fill="#C6C6C6"/>
<path fill-rule="evenodd" clip-rule="evenodd" d="M150.787 219.882L151.013 93.4222C151.023 89.8953 152.921 86.6404 155.994 84.8869L297.13 4.34156C297.165 4.32177 297.199 4.30199 297.234 4.28344C297.952 3.8976 298.705 3.72571 299.441 3.72571C299.567 3.72571 299.691 3.73065 299.815 3.74055C298.371 5.95415 295.911 9.65543 292.631 14.555L157.74 91.6897L157.448 208.876L163.401 205.471C160.297 210.043 157.6 214.015 155.391 217.265L150.787 219.882Z" fill="#999999"/>
<path fill-rule="evenodd" clip-rule="evenodd" d="M157.678 91.0384L292.628 14.5554L163.759 204.686L157.678 208.52V91.0384Z" fill="#990000"/>
<path fill-rule="evenodd" clip-rule="evenodd" d="M245.597 74.1273C245.885 73.5357 246.16 72.9155 246.418 72.2657C250.496 61.9965 249.55 54.6702 249.55 54.6702C249.55 54.6702 243.203 57.0922 237.977 67.0359C234.822 73.0392 234.072 78.4875 233.973 81.8627C233.281 81.8397 232.551 81.7363 231.731 81.62C230.85 81.495 229.863 81.3551 228.706 81.2844C222.04 80.877 216.987 85.8865 216.987 85.8865C216.987 85.8865 211.536 90.1502 207.693 100.276C203.858 110.382 203.988 118.625 204.026 121.056L204.027 121.07C204.131 127.688 205.179 138.224 210.75 149.267C213.715 155.144 217.357 159.573 221.405 160.159C224.964 160.675 228.557 156.988 230.361 154.96C232.04 153.071 235.165 150.601 237.435 149.872C239.688 149.149 240.521 149.3 241.78 149.529C242.096 149.586 242.44 149.648 242.839 149.703C243.426 149.783 243.995 149.902 244.553 150.019C246.116 150.346 247.596 150.655 249.148 150.045C252.398 148.769 256.882 141.969 258.979 137.444C262.837 129.117 266.72 115.91 266.72 115.91C266.72 115.91 256.589 113.758 256.244 99.5046C255.899 85.2517 264.398 76.1176 264.398 76.1176C264.398 76.1176 261.334 71.2657 256.244 70.4694C253.138 69.9833 248.86 71.8661 245.597 74.1273Z" fill="white"/>
<path fill-rule="evenodd" clip-rule="evenodd" d="M40.4685 288.875C18.1186 288.875 0 281.452 0 272.296C0 263.142 18.1186 255.719 40.4685 255.719C52.26 255.719 62.8731 257.785 70.2693 261.082L53.6132 270.238L76.1977 280.089C69.3894 285.316 55.9435 288.875 40.4685 288.875Z" fill="black" fill-opacity="0.2"/>
<path fill-rule="evenodd" clip-rule="evenodd" d="M76.1978 280.088L53.6133 270.238L70.2694 261.081C76.8924 264.032 80.9371 267.971 80.9371 272.296C80.9371 275.113 79.2227 277.765 76.1978 280.088Z" fill="black" fill-opacity="0.2"/>
<path fill-rule="evenodd" clip-rule="evenodd" d="M62.1397 218.181L29.1367 229.249V270.716C29.1367 279.112 40.3243 285.915 54.1249 285.915C67.9241 285.915 79.1118 279.112 79.1118 270.716V229.249L62.1397 218.181Z" fill="#F4F4F4"/>
<path fill-rule="evenodd" clip-rule="evenodd" d="M79.1118 229.249C79.1118 237.643 67.9255 244.448 54.1249 244.448C40.3243 244.448 29.1367 237.643 29.1367 229.249C29.1367 220.855 40.3243 214.051 54.1249 214.051C67.9255 214.051 79.1118 220.855 79.1118 229.249Z" fill="#C6C6C6"/>
<path fill-rule="evenodd" clip-rule="evenodd" d="M32.8533 237.223C37.254 241.558 45.1341 244.448 54.1261 244.448C63.118 244.448 70.9968 241.558 75.3988 237.223C75.7028 236.341 75.8641 235.43 75.8641 234.494C75.8641 227.191 66.1322 221.271 54.1261 221.271C42.1199 221.271 32.3867 227.191 32.3867 234.494C32.3867 235.43 32.5494 236.341 32.8533 237.223Z" fill="#634646"/>
<path fill-rule="evenodd" clip-rule="evenodd" d="M54.1249 214.051C40.3243 214.051 29.1367 220.855 29.1367 229.249C29.1367 237.643 40.3243 244.448 54.1249 244.448C67.9255 244.448 79.1118 237.643 79.1118 229.249C79.1118 220.855 67.9255 214.051 54.1249 214.051ZM54.1245 215.799C66.7199 215.799 77.361 221.958 77.361 229.25C77.361 236.541 66.7199 242.701 54.1245 242.701C41.5291 242.701 30.8867 236.541 30.8867 229.25C30.8867 221.958 41.5291 215.799 54.1245 215.799Z" fill="#999999"/>
<path fill-rule="evenodd" clip-rule="evenodd" d="M75.3618 159.224C73.2715 163.663 73.2422 168.755 73.2542 173.658C73.2662 179.169 73.2795 184.68 73.2915 190.191C73.3062 196.466 73.3075 202.836 71.5971 208.876C69.8853 214.914 66.2046 220.681 60.5748 223.473C57.7859 224.854 54.2811 225.391 51.6441 223.739C50.475 223.006 49.5818 221.909 48.8392 220.748C42.4949 210.819 48.3633 197.477 52.9239 187.945C58.2071 176.905 65.8833 166.992 75.3618 159.224Z" fill="#0C7967"/>
<path fill-rule="evenodd" clip-rule="evenodd" d="M27.9244 204.541C26.358 183.955 27.4151 162.982 22.3586 142.964C36.1351 159.696 42.8488 182.045 40.5718 203.585C45.1378 189.357 49.7504 174.835 49.6678 159.894C49.6264 152.753 54.0271 135.897 54.0271 135.897C54.0271 135.897 56.6174 152.023 58.9997 159.862C60.6234 165.212 60.954 170.855 61.2727 176.436C61.7379 184.58 62.2045 192.722 62.6698 200.865C69.4527 180.392 87.618 152.174 87.618 152.174C87.618 152.174 80.931 205.972 77.3862 218.28C73.3628 232.243 60.2755 241.736 45.2831 238.435C31.6452 235.431 28.7856 215.853 27.9244 204.541Z" fill="#0D9F86"/>
<path fill-rule="evenodd" clip-rule="evenodd" d="M38.5696 224.83C35.7167 217.004 38.3669 208.405 40.148 200.269C42.2703 190.571 43.1116 180.424 40.9479 170.736C48.1215 185.86 54.4365 201.391 59.8503 217.23C61.2501 221.326 62.5966 225.779 61.2661 229.897C60.0116 233.779 52.9834 240.638 48.3214 239.49C44.6553 238.587 39.8201 228.262 38.5696 224.83Z" fill="#1DBDA6"/>
<path d="M305.618 51.7325C307.696 47.2976 311.724 44.5717 314.167 45.9473L336.772 58.6739C337.124 58.8721 337.426 59.1553 337.668 59.5154L381.463 124.565C383.371 127.399 381.346 133.576 377.496 136.661L268.447 224.074C266.703 225.472 264.918 225.868 263.68 225.131L236.372 208.886C234.406 207.716 234.206 204.177 235.9 200.559L305.618 51.7325Z" fill="#C10000"/>
<path d="M328.179 65.2952C330.43 60.0346 335.386 57.0874 337.637 59.6709L402.821 134.479C405.343 137.374 402.634 144.874 398.091 147.575L267.725 225.093C263.182 227.794 260.473 223.515 262.995 217.621L328.179 65.2952Z" fill="#E40D0D"/>
<rect width="16.0819" height="48.2262" rx="8.04096" transform="matrix(0.859529 -0.511086 0 1 327.178 95.2152)" fill="white"/>
<rect width="16.0819" height="16.0754" rx="8.0377" transform="matrix(0.859529 -0.511086 0 1 327.178 151.478)" fill="white"/>
<path d="M259.467 251.67C255.915 250.198 255.562 245.305 258.865 243.337L360.528 182.79C363.063 181.281 366.163 181.057 368.889 182.186L387.88 190.056C391.432 191.528 391.785 196.421 388.482 198.389L286.819 258.935C284.284 260.445 281.184 260.669 278.458 259.54L259.467 251.67Z" fill="#333333" fill-opacity="0.1"/>
<path fill-rule="evenodd" clip-rule="evenodd" d="M454.907 156.145C474.786 156.145 490.901 149.589 490.901 141.502C490.901 133.416 474.786 126.86 454.907 126.86C435.027 126.86 418.912 133.416 418.912 141.502C418.912 149.589 435.027 156.145 454.907 156.145Z" fill="black" fill-opacity="0.2"/>
<path fill-rule="evenodd" clip-rule="evenodd" d="M474.132 83.0779L441.084 94.1607V135.683C441.084 144.089 452.286 150.903 466.105 150.903C479.925 150.903 491.127 144.089 491.127 135.683V94.1607L474.132 83.0779Z" fill="#F4F4F4"/>
<path fill-rule="evenodd" clip-rule="evenodd" d="M491.126 94.1601C491.126 102.566 479.924 109.38 466.105 109.38C452.285 109.38 441.083 102.566 441.083 94.1601C441.083 85.7542 452.285 78.9402 466.105 78.9402C479.924 78.9402 491.126 85.7542 491.126 94.1601Z" fill="#C6C6C6"/>
<path fill-rule="evenodd" clip-rule="evenodd" d="M444.804 102.144C449.21 106.484 457.101 109.379 466.105 109.379C475.109 109.379 482.998 106.484 487.407 102.144C487.711 101.262 487.872 100.348 487.872 99.4107C487.872 92.0976 478.127 86.1702 466.105 86.1702C454.082 86.1702 444.336 92.0976 444.336 99.4107C444.336 100.348 444.499 101.262 444.804 102.144Z" fill="#AC854B"/>
<path fill-rule="evenodd" clip-rule="evenodd" d="M466.105 78.9402C452.285 78.9402 441.083 85.7542 441.083 94.1601C441.083 102.566 452.285 109.38 466.105 109.38C479.924 109.38 491.126 102.566 491.126 94.1601C491.126 85.7542 479.924 78.9402 466.105 78.9402ZM466.102 80.692C478.714 80.692 489.37 86.8603 489.37 94.1615C489.37 101.463 478.714 107.631 466.102 107.631C453.489 107.631 442.833 101.463 442.833 94.1615C442.833 86.8603 453.489 80.692 466.102 80.692Z" fill="#999999"/>
<path fill-rule="evenodd" clip-rule="evenodd" d="M487.45 110.941L486.536 110.414V110.43L486.522 110.422V110.439L486.507 110.43V110.447L486.492 110.438V110.454L486.479 110.447V110.463L486.464 110.454V110.471L486.45 110.461V110.479L486.435 110.471V110.487L486.422 110.477V110.495L486.407 110.485V110.503L486.392 110.495V110.511L486.378 110.503V110.519L486.364 110.511V110.527L486.35 110.519V110.535L486.335 110.527V110.543L486.32 110.535V110.551L486.307 110.543V110.559L486.292 110.551V110.567L486.276 110.559V110.575L486.262 110.567V110.583L486.248 110.575V110.591L486.234 110.583V110.599L486.219 110.591V110.608L486.204 110.599V110.615L486.191 110.607V110.623L486.176 110.615V110.632L486.162 110.623V110.64L486.147 110.631V110.647L486.134 110.64V110.656L486.119 110.647V110.664L486.104 110.655V110.67L486.091 110.664V110.68L486.076 110.67V110.688L486.062 110.68V110.696L486.047 110.688V110.704L486.034 110.696V110.712L486.019 110.704V110.72L486.004 110.712V110.728L485.99 110.72V110.736L485.976 110.728V110.744L485.962 110.736V110.752L485.947 110.744V110.76L485.932 110.752V110.768L485.918 110.76V110.777L485.903 110.768V110.784L485.888 110.776V110.792L485.874 110.784V110.801L485.86 110.792V110.808L485.846 110.8V110.816L485.831 110.808V110.825L485.816 110.816V110.833L485.803 110.824V110.841L485.788 110.833V110.849L485.774 110.84V110.857L485.759 110.849V110.865L485.746 110.857V110.873L485.731 110.863V110.881L485.716 110.873V110.889L485.703 110.881V110.897L485.688 110.889V110.905L485.674 110.897V110.913L485.659 110.905V110.921L485.646 110.913V110.929L485.631 110.921V110.937L485.616 110.929V110.945L485.602 110.937V110.953L485.588 110.945V110.961L485.574 110.953V110.97L485.558 110.961V110.977L485.543 110.969V110.985L485.53 110.977V110.994L485.515 110.985V111.002L485.5 110.993V111.009L485.486 111.002V111.018L485.472 111.009V111.026L485.458 111.017V111.034L485.443 111.026V111.042L485.428 111.033V111.05L485.415 111.042V111.058L485.4 111.05V111.066L485.386 111.058V111.074L485.371 111.066V111.082L485.358 111.074V111.09L485.343 111.082V111.098L485.329 111.09V111.106L485.314 111.098V111.114L485.301 111.106V111.122L485.286 111.114V111.13L485.271 111.122V111.139L485.258 111.13V111.146L485.243 111.138V111.154L485.229 111.146V111.163L485.214 111.154V111.17L485.201 111.162V111.178L485.185 111.17V111.187L485.17 111.178V111.195L485.155 111.187V111.203L485.142 111.195V111.211L485.127 111.202V111.219L485.113 111.211V111.227L485.098 111.219V111.235L485.085 111.226V111.243L485.07 111.235V111.251L485.055 111.243V111.259L485.041 111.251V111.267L485.027 111.259V111.275L485.013 111.267V111.283L484.998 111.275V111.291L484.983 111.283V111.299L484.97 111.291V111.307L484.955 111.299V111.315L484.941 111.307V111.323L484.926 111.315V111.332L484.913 111.323V111.339L484.898 111.331V111.347L484.883 111.339V111.356L484.87 111.347V111.363L484.855 111.355V111.372L484.841 111.363V111.38L484.825 111.371V111.388L484.811 111.379V111.396L484.797 111.388V111.404L484.782 111.395V111.412L484.767 111.404V111.42L484.754 111.412V111.428L484.739 111.419V111.436L484.725 111.428V111.444L484.71 111.436V111.452L484.697 111.444V111.46L484.682 111.452V111.468L484.667 111.46V111.476L484.653 111.468V111.484L484.639 111.476V111.492L484.625 111.484V111.501L484.61 111.492V111.508L484.595 111.5V111.516L484.582 111.508V111.525L484.567 111.516V111.532L484.553 111.524V111.54L484.538 111.532V111.549L484.525 111.54V111.557L484.51 111.549V111.565L484.495 111.557V111.573L484.481 111.564V111.581L484.466 111.573V111.589L484.451 111.581V111.597L484.437 111.588V111.605L484.423 111.597V111.613L484.409 111.605V111.621L484.394 111.613V111.629L484.379 111.621V111.637L484.366 111.629V111.645L484.351 111.637V111.653L484.337 111.645V111.661L484.322 111.653V111.669L484.309 111.661V111.677L484.294 111.669V111.685L484.279 111.677V111.694L484.265 111.685V111.701L484.251 111.693V111.71L484.237 111.701V111.718L484.222 111.709V111.725L484.207 111.717V111.734L484.194 111.725V111.742L484.179 111.733V111.75L484.165 111.742V111.758L484.15 111.75V111.766L484.137 111.757V111.774L484.122 111.766V111.782L484.107 111.774V111.79L484.093 111.782V111.798L484.078 111.79V111.806L484.063 111.798V111.814L484.049 111.806V111.822L484.035 111.814V111.83L484.021 111.822V111.838L484.006 111.83V111.846L483.991 111.838V111.854L483.978 111.846V111.862L483.963 111.854V111.87L483.949 111.862V111.878L483.934 111.87V111.887L483.921 111.878V111.894L483.906 111.886V111.902L483.891 111.894V111.911L483.877 111.902V111.918L483.863 111.911V111.927L483.849 111.918V111.935L483.834 111.926V111.943L483.819 111.935V111.951L483.806 111.943V111.959L483.791 111.95V111.967L483.777 111.959V111.975L483.762 111.967V111.983L483.749 111.975V111.991L483.734 111.983V111.999L483.718 111.991V112.007L483.703 111.999V112.015L483.69 112.007V112.023L483.675 112.015V112.031L483.661 112.023V112.039L483.647 112.031V112.047L483.633 112.039V112.056L483.618 112.047V112.063L483.603 112.055V112.072L483.59 112.063V112.08L483.575 112.071V112.087L483.561 112.08V112.096L483.546 112.087V112.104L483.533 112.095V112.111L483.518 112.104V112.12L483.503 112.111V112.128L483.489 112.119V112.136L483.475 112.128V112.144L483.461 112.136V112.152L483.446 112.144V112.16L483.431 112.152V112.168L483.418 112.16V112.176L483.403 112.168V112.184L483.389 112.176V112.192L483.373 112.184V112.2L483.359 112.192V112.208L483.345 112.2V112.216L483.33 112.208V112.224L483.315 112.216V112.232L483.302 112.224V112.24L483.287 112.232V112.249L483.273 112.24V112.256L483.259 112.248V112.265L483.245 112.256V112.273L483.23 112.264V112.28L483.215 112.273V112.289L483.202 112.28V112.297L483.188 112.288V112.305L483.173 112.297V112.313L483.158 112.305V112.321L483.145 112.312V112.329L483.13 112.321V112.337L483.116 112.329V112.345L483.101 112.337V112.353L483.088 112.345V112.361L483.073 112.353V112.369L483.058 112.361V112.377L483.044 112.369V112.385L483.03 112.377V112.393L483.016 112.385V112.401L483.001 112.393V112.409L482.985 112.401V112.417L482.972 112.409V112.425L482.957 112.417V112.434L482.942 112.425V112.442L482.928 112.433V112.449L482.914 112.442V112.458L482.9 112.449V112.466L482.885 112.457V112.473L482.87 112.466V112.482L482.857 112.473V112.49L482.842 112.481V112.498L482.828 112.49V112.506L482.814 112.498V112.514L482.8 112.506V112.522L482.785 112.514V112.53L482.77 112.522V112.538L482.757 112.53V112.546L482.742 112.538V112.554L482.728 112.546V112.562L482.713 112.554V112.57L482.7 112.562V112.578L482.685 112.57V112.586L482.67 112.578V112.594L482.656 112.586V112.603L482.642 112.594V112.61L482.628 112.602V112.618L482.612 112.61V112.627L482.597 112.618V112.635L482.584 112.626V112.642L482.569 112.635V112.651L482.554 112.642V112.659L482.54 112.65V112.667L482.526 112.659V112.675L482.512 112.666V112.683L482.497 112.675V112.691L482.482 112.683V112.699L482.469 112.691V112.707L482.454 112.699V112.715L482.44 112.707V112.723L482.426 112.715V112.731L482.412 112.723V112.739L482.397 112.731V112.747L482.382 112.739V112.755L482.369 112.747V112.763L482.354 112.755V112.771L482.34 112.763V112.779L482.325 112.771V112.787L482.312 112.779V112.796L482.297 112.787V112.804L482.282 112.795V112.811L482.266 112.804V112.82L482.253 112.811V112.828L482.238 112.819V112.835L482.224 112.828V112.844L482.209 112.835V117.06C486.452 119.912 489.048 124.731 489.048 129.878C489.048 131.512 488.487 133.031 487.488 134.231C487.172 134.276 486.855 134.3 486.536 134.3V134.308L486.522 134.31V134.318H486.507V134.324L486.492 134.326V134.332L486.479 134.334V134.342H486.464V134.35H486.45V134.358H486.435V134.366H486.422V134.374H486.407V134.382H486.392V134.39H486.378V134.398H486.364V134.406L486.35 134.407V134.414H486.335V134.422H486.32V134.43L486.307 134.431V134.438H486.292V134.445H486.276V134.453L486.262 134.455V134.461L486.248 134.463V134.469L486.234 134.471V134.477L486.219 134.479V134.485L486.204 134.487V134.493L486.191 134.495V134.501L486.176 134.503V134.511H486.162V134.519H486.147V134.525L486.134 134.527V134.535H486.119V134.543H486.104V134.551H486.091V134.559H486.076V134.567H486.062V134.575H486.047V134.583H486.034V134.591H486.019V134.599L486.004 134.6V134.607H485.99V134.615H485.976V134.623L485.962 134.624V134.631H485.947V134.639H485.932V134.646L485.918 134.648V134.656H485.903V134.662L485.888 134.664V134.67L485.874 134.672V134.68H485.86V134.686L485.846 134.688V134.694L485.831 134.696V134.704H485.816V134.712H485.803V134.72H485.788V134.728H485.774V134.736H485.759V134.744H485.746V134.752H485.731V134.76H485.716V134.768H485.703V134.776H485.688V134.784H485.674V134.792L485.659 134.793V134.8H485.646V134.808H485.631V134.816L485.616 134.817V134.824H485.602V134.832L485.588 134.833V134.84L485.574 134.841V134.849H485.558V134.855L485.543 134.857V134.863L485.53 134.865V134.873H485.515V134.879L485.5 134.881V134.889H485.486V134.897H485.472V134.905H485.458V134.913H485.443V134.921H485.428V134.929H485.415V134.937H485.4V134.945H485.386V134.953H485.371V134.961L485.358 134.962V134.969H485.343V134.977H485.329V134.985L485.314 134.986V134.993H485.301V135.001L485.286 135.002V135.009L485.271 135.01V135.018H485.258V135.025L485.243 135.026V135.033L485.229 135.034V135.042H485.214V135.048L485.201 135.05V135.056L485.185 135.058V135.066H485.17V135.072L485.155 135.074V135.082H485.142V135.09H485.127V135.098H485.113V135.106H485.098V135.114H485.085V135.122H485.07V135.13H485.055V135.138H485.041V135.146H485.027V135.154L485.013 135.155V135.162H484.998V135.17H484.983V135.178L484.97 135.179V135.186H484.955V135.194L484.941 135.195V135.202L484.926 135.203V135.211H484.913V135.218L484.898 135.219V135.226L484.883 135.227V135.235H484.87V135.242L484.855 135.243V135.251H484.841V135.259H484.825V135.267H484.811V135.275H484.797V135.283H484.782V135.291H484.767V135.299H484.754V135.307H484.739V135.315H484.725V135.323H484.71V135.331H484.697V135.339L484.682 135.34V135.347L484.667 135.348V135.355H484.653V135.363L484.639 135.364V135.371L484.625 135.372V135.379H484.61V135.387L484.595 135.388V135.395L484.582 135.396V135.404H484.567V135.411L484.553 135.412V135.419L484.538 135.42V135.428H484.525V135.435L484.51 135.436V135.444H484.495V135.452H484.481V135.46H484.466V135.468H484.451V135.476H484.437V135.484H484.423V135.492H484.409V135.5H484.394V135.508H484.379V135.516L484.366 135.517V135.524H484.351V135.532H484.337V135.54L484.322 135.541V135.548H484.309V135.556L484.294 135.557V135.564L484.279 135.565V135.572H484.265V135.58L484.251 135.581V135.588L484.237 135.589V135.597H484.222V135.604L484.207 135.605V135.613H484.194V135.621H484.179V135.628L484.165 135.629V135.637H484.15V135.645H484.137V135.653H484.122V135.661H484.107V135.669H484.093V135.677H484.078V135.685H484.063V135.693H484.049V135.701L484.035 135.702V135.709L484.021 135.71V135.717H484.006V135.725L483.991 135.726V135.733L483.978 135.734V135.741H483.963V135.749L483.949 135.75V135.757L483.934 135.758V135.766H483.921V135.773L483.906 135.774V135.782H483.891V135.79H483.877V135.797L483.863 135.798V135.806H483.849V135.814H483.834V135.822H483.819V135.83H483.806V135.838H483.791V135.846H483.777V135.854H483.762V135.862H483.749V135.87H483.734V135.878H483.718V135.886H483.703V135.894L483.69 135.895V135.902L483.675 135.903V135.91H483.661V135.918L483.647 135.919V135.926L483.633 135.927V135.934L483.618 135.935V135.942L483.603 135.943V135.951H483.59V135.959H483.575V135.966L483.561 135.967V135.975H483.546V135.983H483.533V135.99L483.518 135.991V135.999H483.503V136.007H483.489V136.015H483.475V136.023H483.461V136.031H483.446V136.039H483.431V136.047H483.418V136.055H483.403V136.063L483.389 136.064V136.071H483.373V136.079H483.359V136.087L483.345 136.088V136.095L483.33 136.096V136.103H483.315V136.111L483.302 136.112V136.12H483.287V136.127L483.273 136.128V136.135L483.259 136.136V136.144H483.245V136.152H483.23V136.159L483.215 136.16V136.168H483.202V136.176H483.188V136.184H483.173V136.192H483.158V136.2H483.145V136.208H483.13V136.216H483.116V136.224H483.101V136.232L483.088 136.233V136.24H483.073V136.248H483.058V136.256L483.044 136.257V136.264L483.03 136.265V136.272H483.016V136.28L483.001 136.281V136.288L482.985 136.289V136.296L482.972 136.297V136.304L482.957 136.305V136.313H482.942V136.321H482.928V136.328L482.914 136.329V136.337H482.9V136.345H482.885V136.352L482.87 136.353V136.361H482.857V136.369H482.842V136.377H482.828V136.385H482.814V136.393H482.8V136.401H482.785V136.409H482.77V136.417H482.757V136.425L482.742 136.426V136.433H482.728V136.441H482.713V136.449L482.7 136.45V136.457L482.685 136.458V136.465H482.67V136.473L482.656 136.474V136.482H482.642V136.489L482.628 136.49V136.497L482.612 136.498V136.506H482.597V136.514H482.584V136.521L482.569 136.522V136.53H482.554V136.538H482.54V136.546H482.526V136.554H482.512V136.562H482.497V136.57H482.482V136.578H482.469V136.586H482.454V136.594L482.44 136.595V136.602H482.426V136.61H482.412V136.618L482.397 136.619V136.626H482.382V136.634H482.369V136.642L482.354 136.643V136.65L482.34 136.651V136.658L482.325 136.659V136.666L482.312 136.667V136.675H482.297V136.682L482.282 136.683V136.69L482.266 136.691V136.699H482.253V136.707H482.238V136.715H482.224V136.723H482.209V140.349C484.007 140.348 485.807 139.875 487.444 138.93L487.448 138.927L487.459 138.922L487.463 138.919L487.474 138.914L487.478 138.911L487.487 138.906L487.491 138.903L487.502 138.898L487.506 138.895L487.516 138.89L487.52 138.887L487.531 138.881L487.536 138.878L487.544 138.873L487.548 138.871L487.559 138.866L487.564 138.862L487.573 138.857L487.579 138.854L487.588 138.849L487.592 138.846L487.601 138.841L487.607 138.839L487.617 138.833L487.621 138.83L487.632 138.825L487.636 138.822L487.647 138.817L487.649 138.814L487.66 138.809L487.664 138.806L487.675 138.801L487.679 138.798L487.689 138.793L487.693 138.79L487.703 138.785L487.707 138.782L487.717 138.777L487.721 138.774L487.732 138.769L487.736 138.766L487.747 138.761L487.751 138.758L487.76 138.753L487.764 138.75L487.775 138.745L487.779 138.742L487.789 138.737L487.793 138.733L487.804 138.729L487.808 138.726L487.817 138.721L487.821 138.718L487.832 138.712L487.836 138.709L487.847 138.705L487.851 138.702L487.861 138.697L487.865 138.694L487.875 138.688L487.88 138.685L487.889 138.68L487.893 138.678L487.904 138.673L487.909 138.669L487.919 138.664L487.924 138.661L487.932 138.656L487.936 138.653L487.947 138.648L487.952 138.645L487.961 138.64L487.967 138.637L487.977 138.632L487.98 138.629L487.991 138.624L487.995 138.621L488.005 138.616L488.009 138.613L488.02 138.608L488.024 138.605L488.035 138.6L488.037 138.597L488.048 138.592L488.052 138.589L488.063 138.584L488.067 138.581L488.077 138.576L488.081 138.573L488.092 138.568L488.095 138.565L488.105 138.56L488.109 138.557L488.12 138.552L488.124 138.549L488.135 138.543L488.139 138.541L488.148 138.536L488.152 138.533L488.163 138.528L488.167 138.525L488.177 138.519L488.181 138.516L488.192 138.512L488.196 138.509L488.205 138.503L488.209 138.5L488.22 138.495L488.224 138.492L488.235 138.487L488.239 138.484L488.249 138.479L488.253 138.476L488.263 138.471L488.268 138.468L488.277 138.463L488.281 138.46L488.292 138.455L488.297 138.452L488.307 138.447L488.312 138.444L488.32 138.439L488.325 138.436L488.335 138.431L488.34 138.428L488.349 138.423L488.365 138.415L488.369 138.412L488.379 138.407L488.383 138.404L488.393 138.399L488.397 138.396L488.408 138.391L488.412 138.388L488.423 138.383L488.425 138.38L488.436 138.374L488.44 138.372L488.451 138.367L488.455 138.364L488.465 138.359L488.469 138.356L488.48 138.35L488.483 138.347L488.493 138.343L488.497 138.34L488.508 138.335L488.512 138.331L488.523 138.326L488.527 138.323L488.536 138.318L488.54 138.316L488.551 138.31L488.555 138.308L488.565 138.302L488.569 138.299L488.58 138.294L488.584 138.291L488.593 138.286L488.597 138.283L488.608 138.278L488.612 138.275L488.623 138.27L488.628 138.267L488.637 138.262L488.641 138.259L488.651 138.254L488.656 138.251L488.665 138.246L488.671 138.243L488.68 138.238L488.685 138.235L488.695 138.23L488.7 138.227L488.709 138.222L488.713 138.219L488.724 138.214L488.728 138.211L488.739 138.206L488.743 138.203L488.753 138.198L488.757 138.195L488.767 138.19L488.771 138.187L488.781 138.181L488.785 138.179L488.796 138.174L488.8 138.171L488.811 138.166L488.813 138.163L488.824 138.157L488.828 138.154L488.839 138.15L488.843 138.147L488.853 138.141L488.857 138.138L488.868 138.133L488.871 138.13L488.881 138.125L488.885 138.123L488.896 138.117L488.9 138.114L488.911 138.109L488.915 138.106L488.925 138.101L488.928 138.098L488.939 138.093L488.943 138.09L488.953 138.085L488.957 138.082L488.968 138.077L488.972 138.074L488.981 138.069L488.987 138.066L488.996 138.061L489 138.058L489.011 138.053L489.016 138.05L489.025 138.045L489.031 138.042L489.039 138.037L489.044 138.034L489.053 138.029L489.059 138.026L489.068 138.021L489.084 138.013L489.088 138.01L489.097 138.005L489.101 138.002L489.112 137.997L489.116 137.994L489.127 137.988L489.131 137.985L489.141 137.981L489.145 137.978L489.155 137.973L489.159 137.969L489.169 137.964L489.173 137.961L489.184 137.957L489.188 137.954L489.199 137.948L489.203 137.946L489.212 137.94L489.216 137.937L489.227 137.932L489.231 137.929L489.241 137.924L489.245 137.921L489.256 137.916L489.259 137.913L489.269 137.908L489.273 137.905L489.284 137.9L489.288 137.897L489.299 137.892L489.303 137.889L489.313 137.884L489.316 137.881L489.327 137.876L489.332 137.873L489.341 137.868L489.345 137.865L489.361 137.857L489.369 137.852L489.375 137.849L489.384 137.844L489.388 137.841L489.399 137.836L489.404 137.833L489.413 137.828L489.419 137.825L489.427 137.819L489.432 137.817L489.441 137.812L489.447 137.809L489.457 137.804L489.461 137.8L489.472 137.795L489.476 137.792L489.485 137.788L489.489 137.785L489.5 137.779L489.504 137.776L489.515 137.771L489.519 137.768L489.529 137.763L489.533 137.761L489.543 137.755L489.547 137.752L489.557 137.747L489.561 137.744L489.572 137.739L489.576 137.736L489.587 137.731L489.591 137.728L489.6 137.723L489.604 137.72L489.615 137.715L489.619 137.712L489.629 137.707L489.633 137.704L489.644 137.699L489.647 137.696L489.657 137.691L489.661 137.688L489.672 137.683L489.676 137.68L489.687 137.675L489.691 137.672L489.701 137.667L489.704 137.664L489.715 137.659L489.72 137.656L489.729 137.651L489.733 137.648L489.744 137.643L489.749 137.64L489.758 137.635L489.761 137.632L489.772 137.626L489.777 137.624L489.786 137.619L489.792 137.616L489.801 137.61L489.806 137.607L489.816 137.602L489.82 137.599L489.83 137.595L489.834 137.592L489.845 137.586L489.849 137.583L489.86 137.578L489.864 137.575L489.873 137.57L489.877 137.567L489.888 137.562L489.892 137.559L489.902 137.554L489.906 137.551L489.917 137.546L489.921 137.543L489.93 137.538L489.934 137.535L489.945 137.53L489.949 137.527L489.96 137.522L489.964 137.519L489.974 137.514L489.978 137.511L489.988 137.506L489.992 137.503L490.002 137.498L490.006 137.495L490.017 137.49L490.021 137.487L490.032 137.482L490.036 137.479L490.045 137.474L490.049 137.471L490.06 137.466L490.064 137.463L490.074 137.458L490.078 137.455L490.089 137.45L490.092 137.447L490.102 137.442L490.108 137.438L490.117 137.433L490.121 137.43L490.132 137.426L490.137 137.423L490.146 137.417L490.15 137.414L490.16 137.409L490.165 137.406L490.176 137.402L490.18 137.399L490.19 137.393L490.194 137.39L490.204 137.385L490.208 137.382L490.218 137.377L490.222 137.374L490.233 137.369L490.237 137.366L490.248 137.361L490.252 137.358L490.261 137.353L490.265 137.35L490.276 137.345L490.28 137.342L490.29 137.337L490.294 137.334L490.305 137.329L490.309 137.326L490.318 137.321L490.322 137.318L490.333 137.313L490.337 137.31L490.348 137.305L490.352 137.302L490.362 137.297L490.366 137.294L490.376 137.289L490.38 137.286L490.39 137.281L490.394 137.278L490.405 137.271L490.409 137.269L490.42 137.263L490.424 137.262L490.433 137.257L490.438 137.254L490.448 137.247L490.452 137.245L490.462 137.24L490.466 137.237L490.477 137.233L490.48 137.23L490.49 137.224L490.496 137.221L490.505 137.216L490.509 137.213L490.52 137.209L490.525 137.205L490.534 137.2L490.538 137.197L490.548 137.192L490.553 137.189L490.564 137.184L490.568 137.181L490.578 137.176L490.582 137.173L490.592 137.168L490.596 137.165L490.606 137.16L490.61 137.157L490.621 137.152L490.625 137.149L490.636 137.144L490.64 137.141L490.649 137.136L490.653 137.133L490.664 137.128L490.668 137.125L490.678 137.12L490.682 137.117L490.693 137.112L490.697 137.109L490.706 137.104L490.71 137.101L490.721 137.096L490.725 137.093L490.736 137.088L490.74 137.085L490.75 137.078L490.754 137.076L490.764 137.07L490.768 137.069L490.778 137.064L490.782 137.061L490.793 137.054L490.797 137.053L490.808 137.046L490.813 137.044L490.821 137.04L490.826 137.036L490.836 137.031L490.84 137.028L490.85 137.023L490.856 137.02L490.865 137.015L490.869 137.013L490.878 137.007L490.884 137.004L490.893 136.999L490.898 136.996L490.909 136.991L490.913 136.988L490.924 136.983L490.926 136.98L490.937 136.975L490.941 136.972L490.952 136.967L490.956 136.964L490.966 136.959L490.97 136.956L490.98 136.951L490.984 136.948L490.994 136.943L490.998 136.94L491.009 136.935L491.013 136.932L491.024 136.927L491.028 136.924L491.037 136.919L491.041 136.916L491.052 136.909L491.056 136.907L491.066 136.903L491.07 136.9L491.081 136.895L491.085 136.892L491.094 136.885L491.098 136.884L491.109 136.877L491.113 136.876L491.124 136.871L491.128 136.868L491.138 136.861L491.142 136.859L491.152 136.853L491.156 136.851L491.166 136.847L491.172 136.843L491.181 136.838L491.185 136.835L491.196 136.83L491.201 136.827L491.209 136.822L491.213 136.819L491.224 136.814L491.229 136.811L491.238 136.806L491.244 136.803L491.253 136.798L491.258 136.795L491.266 136.79L491.27 136.787L491.282 136.782L491.286 136.779L491.297 136.774L491.301 136.771L491.312 136.766L491.314 136.763L491.325 136.758L491.329 136.755L491.34 136.75L491.344 136.747L491.354 136.74L491.358 136.739L491.369 136.734L491.372 136.731L491.382 136.726L491.386 136.723L491.397 136.716L491.401 136.715L491.412 136.71L491.416 136.707L491.425 136.702L491.429 136.699L491.44 136.692L491.444 136.69L491.454 136.684L491.458 136.682L491.469 136.676L491.473 136.674L491.482 136.668L491.486 136.666L491.497 136.66L491.501 136.658L491.512 136.652L491.516 136.65L491.526 136.644L491.53 136.642L491.54 136.637L491.544 136.634L491.554 136.629L491.56 136.626L491.569 136.621L491.573 136.618L491.584 136.613L491.589 136.61L491.597 136.605L491.601 136.602L491.612 136.597L491.617 136.594L491.626 136.589L491.632 136.586L491.641 136.581L491.646 136.578L491.656 136.573L491.66 136.57L491.67 136.565L491.674 136.562L491.685 136.557L491.689 136.554L491.7 136.549L491.702 136.545L491.713 136.541L491.717 136.538L491.728 136.533L491.732 136.53L491.742 136.523L491.746 136.522L491.757 136.515L491.76 136.514L491.77 136.509C495.044 134.617 497 131.235 497 127.457C497 120.664 493.341 114.336 487.45 110.941Z" fill="#F4F4F4"/>
<path fill-rule="evenodd" clip-rule="evenodd" d="M483.124 113.363L482.209 112.836V117.061C486.452 119.913 489.048 124.732 489.048 129.879C489.048 132.348 487.771 134.561 485.63 135.796C484.559 136.414 483.385 136.722 482.209 136.724V140.35C484.007 140.348 485.807 139.876 487.444 138.931C490.72 137.041 492.675 133.657 492.675 129.879C492.675 123.088 489.015 116.758 483.124 113.363Z" fill="#C6C6C6"/>
</svg>
