<svg width="310" height="500" viewBox="0 0 310 500" fill="none" xmlns="http://www.w3.org/2000/svg">
<path d="M49.4339 480.219C49.2026 480.09 48.957 479.988 48.7085 479.896C44.266 478.262 43.3015 473.59 47.0916 471.401L245.165 356.99C248.373 355.137 252.634 354.674 256.6 355.716C257.112 355.85 257.598 356.067 258.06 356.324L291.483 374.951C291.715 375.08 291.96 375.183 292.209 375.274C296.651 376.909 297.616 381.58 293.826 383.77L95.7521 498.18C92.5447 500.033 88.2835 500.496 84.3178 499.455C83.8057 499.32 83.3197 499.104 82.8572 498.846L49.4339 480.219Z" fill="#333333" fill-opacity="0.2"/>
<path d="M153.883 406.233C150.161 412.025 144.955 415.356 140.879 414.615C111.884 409.35 0.00923065 384.661 0.00311794 317.21C-0.00253946 254.784 0.000926355 184.149 0.00248784 159.043C0.00284145 153.358 3.12615 146.53 7.77917 141.991L125.988 26.6742C128.422 24.3 131.066 22.7727 133.5 22.3354L257.07 0.129446C258.661 -0.156479 260.113 0.0326035 261.324 0.683425L306.077 24.7397C310.423 27.0756 310.81 34.7591 307.079 42.4011C292.554 72.146 259.486 142.586 259.485 167.329C259.485 236.953 177.372 369.688 153.883 406.233Z" fill="#0055B7"/>
<path d="M185.267 412.727C182.093 416.448 178.447 418.514 175.302 418.376C151.552 417.338 50.5237 408.9 50.5175 340.517C50.5119 278.09 50.5153 207.455 50.5169 182.349C50.5172 176.664 53.6406 169.836 58.2936 165.297L176.503 49.9802C178.937 47.6061 181.581 46.0788 184.015 45.6414L302.223 24.399C306.876 23.5627 310 26.7731 310 32.4588C310 57.0238 310 125.484 310 190.635C310 262.277 209.114 384.773 185.267 412.727Z" fill="#0075FF"/>
<path d="M128.881 287.166L130.536 292.089C133.048 299.561 141.329 299.532 149.033 292.022C155.891 285.336 159.98 274.976 159.022 267.51C162.472 267.708 166.69 265.827 170.747 261.872C175.725 257.019 179.244 250.23 180.433 244.017L197.725 245.137C199.403 245.246 200.441 246.701 200.441 248.947L200.441 252.517C200.441 253.991 201.467 254.575 202.733 253.821C204.011 253.06 205.043 251.229 205.025 249.752L204.963 244.453C204.931 241.702 203.659 239.909 201.608 239.723L190.391 238.707C183.787 238.109 179.683 232.349 179.557 223.502L179.443 215.469C179.439 215.176 179.687 214.817 179.928 214.769L205.819 209.612C205.957 209.585 206.081 209.556 206.221 209.522C208.602 208.941 232.083 203.657 232.901 220.979C233.94 242.972 234.093 267.079 222.781 292.233C214.694 310.215 202.745 326.54 185.251 338.041C155.833 357.382 129.854 353.937 129.507 314.612C129.398 302.217 129.158 293.412 128.881 287.166Z" fill="white"/>
<path d="M145.803 226.288C144.044 221.057 146.991 212.555 152.383 207.298C157.776 202.042 163.573 202.021 165.331 207.252L175.943 238.82C177.702 244.051 174.756 252.553 169.363 257.81C163.97 263.067 158.173 263.088 156.415 257.857L145.803 226.288Z" fill="white"/>
<path d="M125.087 259.407C123.328 254.176 126.274 245.674 131.667 240.417C137.06 235.16 142.857 235.139 144.615 240.37L154.229 268.97C155.988 274.201 153.042 282.703 147.649 287.96C142.256 293.216 136.459 293.237 134.701 288.006L125.087 259.407Z" fill="white"/>
<path d="M154.291 157.908C152.281 151.929 155.648 142.213 161.811 136.205C167.974 130.197 174.599 130.173 176.609 136.152L198.715 201.914C199.064 202.952 200.605 201.939 200.838 200.518L214.333 118.191C215.674 110.01 221.903 101.583 228.245 99.3693C234.587 97.1556 238.641 101.993 237.3 110.174L222.092 202.954C215.373 202.15 208.543 203.703 207.222 204.025C207.115 204.052 207.042 204.068 206.966 204.083L181.075 209.24C177.951 209.862 174.718 214.529 174.772 218.338L174.779 218.857L154.291 157.908Z" fill="white"/>
</svg>
