<svg width="24" height="24" viewBox="0 0 24 24" fill="none" xmlns="http://www.w3.org/2000/svg">
<path fill-rule="evenodd" clip-rule="evenodd" d="M11.0029 3.99902C11.0029 3.44902 11.4529 2.99902 12.0029 2.99902C17.0729 2.99902 21.1629 7.18902 20.9929 12.289C20.8429 16.989 16.9129 20.889 12.2129 20.999C7.14293 21.119 3.00293 17.039 3.00293 11.999C3.00293 9.39902 4.10293 7.06902 5.86293 5.43902C6.26293 5.06902 6.88293 5.07902 7.26293 5.45902L12.7029 10.889C13.0929 11.279 13.0929 11.909 12.7029 12.299C12.3129 12.689 11.6829 12.689 11.2929 12.299L6.58293 7.57902C5.59293 8.77902 5.00293 10.319 5.00293 11.999C5.00293 15.909 8.19293 19.059 12.1229 18.999C15.9729 18.939 19.1429 15.589 19.0029 11.739C18.8729 8.32902 16.3129 5.55902 13.0029 5.07902V5.99902C13.0029 6.54902 12.5529 6.99902 12.0029 6.99902C11.4529 6.99902 11.0029 6.54902 11.0029 5.99902V3.99902ZM6.00293 11.999C6.00293 11.4467 6.45064 10.999 7.00293 10.999C7.55521 10.999 8.00293 11.4467 8.00293 11.999C8.00293 12.5513 7.55521 12.999 7.00293 12.999C6.45064 12.999 6.00293 12.5513 6.00293 11.999ZM11.0029 16.999C11.0029 16.4467 11.4506 15.999 12.0029 15.999C12.5552 15.999 13.0029 16.4467 13.0029 16.999C13.0029 17.5513 12.5552 17.999 12.0029 17.999C11.4506 17.999 11.0029 17.5513 11.0029 16.999ZM17.0029 10.999C16.4506 10.999 16.0029 11.4467 16.0029 11.999C16.0029 12.5513 16.4506 12.999 17.0029 12.999C17.5552 12.999 18.0029 12.5513 18.0029 11.999C18.0029 11.4467 17.5552 10.999 17.0029 10.999Z" fill="#333333"/>
</svg>
