<svg width="20" height="20" viewBox="0 0 20 20" fill="none" xmlns="http://www.w3.org/2000/svg">
<path fill-rule="evenodd" clip-rule="evenodd" d="M4.16667 1.25H15.8333C16.75 1.25 17.5 2 17.5 2.91667V14.5833C17.5 15.5 16.75 16.25 15.8333 16.25H12.5L10 18.75L7.5 16.25H4.16667C3.24167 16.25 2.5 15.5 2.5 14.5833V2.91667C2.5 2 3.24167 1.25 4.16667 1.25ZM11.8083 14.5833H15.8333V2.91667H4.16667V14.5833H8.19167L8.675 15.0667L10 16.3917L11.3167 15.075L11.8083 14.5833ZM9.16667 13.75V12.0833H10.8333V13.75H9.16667ZM11.6667 7.08333C11.6667 6.16667 10.9167 5.41667 10 5.41667C9.08333 5.41667 8.33333 6.16667 8.33333 7.08333H6.66667C6.66667 5.24167 8.15833 3.75 10 3.75C11.8417 3.75 13.3333 5.24167 13.3333 7.08333C13.3333 8.15243 12.675 8.72777 12.034 9.28795C11.4258 9.81939 10.8333 10.3372 10.8333 11.25H9.16667C9.16667 9.73227 9.95177 9.13049 10.642 8.6014C11.1835 8.18634 11.6667 7.81601 11.6667 7.08333Z" fill="white"/>
</svg>
