<svg width="130" height="24" viewBox="0 0 130 24" fill="none" xmlns="http://www.w3.org/2000/svg">
<path d="M10.032 23.7774C9.75577 23.9217 9.43256 23.9183 9.15897 23.769C7.28646 22.7475 0.000673775 18.4929 0.000222114 14.138C-0.000187621 10.1913 5.11866e-05 5.73621 0.000167683 4.03769C0.000198238 3.6118 0.269977 3.23525 0.672336 3.09563L9.26568 0.113753C9.47802 0.0400725 9.70899 0.0400726 9.92132 0.113753L18.5146 3.09561C18.917 3.23524 19.1868 3.61289 19.1868 4.03882C19.1868 5.70214 19.1868 10.0225 19.1868 14.138C19.1867 18.7002 11.9109 22.7958 10.032 23.7774Z" fill="#0075FF"/>
<path d="M5.6784 13.5359L5.80228 13.9161C5.99032 14.4931 6.61023 14.8084 7.18689 14.6202C7.70027 14.4527 8.00629 13.9426 7.93459 13.4255C8.19288 13.5704 8.50858 13.6109 8.81228 13.5118C9.18494 13.3902 9.44834 13.0881 9.53731 12.7339L10.8317 13.4683C10.9574 13.5395 11.035 13.6729 11.035 13.8174L11.035 14.0471C11.035 14.142 11.1118 14.2188 11.2066 14.2188C11.3023 14.2188 11.3795 14.1405 11.3782 14.0448L11.3735 13.7015C11.3711 13.5232 11.2759 13.3591 11.1224 13.2686L10.2828 12.7736C9.7884 12.4822 9.48117 11.9544 9.47177 11.3803L9.46322 10.8591C9.46291 10.84 9.48153 10.8265 9.49952 10.8326L11.4376 11.4924C11.4479 11.4959 11.4572 11.4988 11.4677 11.502C11.6459 11.5558 13.4036 12.1151 13.4648 13.261C13.5426 14.7159 13.5541 16.273 12.7073 17.4583C12.1019 18.3056 11.2075 18.8984 9.89796 18.9685C7.69588 19.0863 5.75122 17.8696 5.72528 15.326C5.7171 14.5242 5.69915 13.9485 5.6784 13.5359Z" fill="white"/>
<path d="M6.9451 10.2668C6.81348 9.8629 7.034 9.42867 7.43766 9.29695C7.84132 9.16523 8.27526 9.3859 8.40689 9.78984L9.20125 12.2276C9.33288 12.6315 9.11236 13.0657 8.7087 13.1975C8.30504 13.3292 7.8711 13.1085 7.73947 12.7046L6.9451 10.2668Z" fill="white"/>
<path d="M5.39441 11.6045C5.26278 11.2005 5.4833 10.7663 5.88697 10.6346C6.29063 10.5029 6.72456 10.7235 6.85619 11.1275L7.57585 13.3359C7.70748 13.7399 7.48695 14.1741 7.08329 14.3058C6.67963 14.4375 6.24569 14.2169 6.11406 13.8129L5.39441 11.6045Z" fill="white"/>
<path d="M7.58046 6.19193C7.43002 5.73028 7.68205 5.23401 8.14338 5.08347C8.60471 4.93294 9.10064 5.18514 9.25107 5.64678L10.9059 10.725C10.932 10.8051 11.0473 10.799 11.0648 10.7165L12.0749 5.93592C12.1753 5.46085 12.6415 5.15717 13.1163 5.25763C13.591 5.35808 13.8945 5.82463 13.7941 6.29969L12.6557 11.6872C12.1528 11.3782 11.6415 11.2165 11.5426 11.1866C11.5346 11.1842 11.5292 11.1825 11.5235 11.1805L9.58542 10.5208C9.35157 10.4412 9.10954 10.6176 9.11359 10.8648L9.11414 10.8984L7.58046 6.19193Z" fill="white"/>
<path d="M36.4689 13.8388L34.974 9.74695C34.9004 9.56546 34.824 9.34995 34.7447 9.10041C34.6654 8.85087 34.5861 8.58148 34.5069 8.29224C34.4333 8.58148 34.3568 8.85371 34.2775 9.10892C34.1983 9.35846 34.1218 9.57681 34.0482 9.76396L32.5618 13.8388H36.4689ZM40.5035 18.4837H38.7368C38.5386 18.4837 38.3772 18.4355 38.2526 18.3391C38.1281 18.237 38.0346 18.1122 37.9723 17.9648L37.055 15.4552H31.9672L31.0499 17.9648C31.0046 18.0952 30.9168 18.2143 30.7866 18.3221C30.6563 18.4298 30.495 18.4837 30.3024 18.4837H28.5187L33.3517 6.18249H35.679L40.5035 18.4837Z" fill="black"/>
<path d="M46.7311 11.9843C46.4932 11.6951 46.2327 11.4909 45.9496 11.3718C45.6722 11.2527 45.372 11.1931 45.0493 11.1931C44.7322 11.1931 44.4462 11.2527 44.1914 11.3718C43.9366 11.4909 43.7186 11.6724 43.5374 11.9162C43.3562 12.1544 43.2174 12.4607 43.1212 12.835C43.0249 13.2036 42.9768 13.6403 42.9768 14.1451C42.9768 14.6555 43.0164 15.0894 43.0957 15.4467C43.1806 15.7983 43.2996 16.0875 43.4524 16.3144C43.6053 16.5356 43.7922 16.6972 44.013 16.7993C44.2339 16.8957 44.4802 16.9439 44.752 16.9439C45.188 16.9439 45.5589 16.8532 45.8647 16.6717C46.1705 16.4902 46.4592 16.2322 46.7311 15.8976V11.9843ZM48.829 5.84221V18.4837H47.5465C47.269 18.4837 47.0935 18.3561 47.0198 18.1009L46.8415 17.2587C46.4904 17.6613 46.0855 17.9875 45.6269 18.237C45.1739 18.4865 44.6444 18.6113 44.0385 18.6113C43.5629 18.6113 43.1268 18.5121 42.7305 18.3136C42.3341 18.1151 41.9915 17.8287 41.7027 17.4543C41.4196 17.0744 41.1988 16.6065 41.0402 16.0507C40.8873 15.4949 40.8109 14.8597 40.8109 14.1451C40.8109 13.4986 40.8986 12.8974 41.0742 12.3416C41.2497 11.7858 41.5017 11.3037 41.8301 10.8954C42.1586 10.4871 42.5521 10.1695 43.0108 9.94261C43.4694 9.71008 43.9847 9.59382 44.5566 9.59382C45.0436 9.59382 45.4598 9.67038 45.8052 9.82351C46.1506 9.97664 46.4592 10.1836 46.7311 10.4445V5.84221H48.829Z" fill="black"/>
<path d="M55.69 17.1736C56.16 17.1736 56.5649 17.1197 56.9046 17.012C57.2444 16.9042 57.5219 16.7539 57.737 16.5611C57.9579 16.3626 58.1193 16.1301 58.2212 15.8635C58.3231 15.5913 58.3741 15.2936 58.3741 14.9703C58.3741 14.3408 58.1504 13.8445 57.7031 13.4815C57.2557 13.1129 56.5847 12.9286 55.69 12.9286H53.0569V17.1736H55.69ZM53.0569 7.59466V11.7546H55.2314C55.6957 11.7546 56.0977 11.7036 56.4375 11.6015C56.7829 11.4994 57.066 11.3576 57.2869 11.1761C57.5134 10.9947 57.6804 10.7763 57.788 10.5211C57.8956 10.2602 57.9494 9.97664 57.9494 9.67039C57.9494 8.95012 57.7342 8.42552 57.3039 8.09658C56.8735 7.76197 56.2053 7.59466 55.2993 7.59466H53.0569ZM55.2993 6.29308C56.0468 6.29308 56.6895 6.36681 57.2274 6.51427C57.771 6.66172 58.2155 6.87156 58.5609 7.14379C58.912 7.41601 59.1697 7.75063 59.3339 8.14762C59.4981 8.53895 59.5802 8.98131 59.5802 9.47472C59.5802 9.77531 59.5321 10.0645 59.4358 10.3424C59.3452 10.6147 59.2065 10.8699 59.0196 11.1081C58.8327 11.3463 58.5949 11.5618 58.3061 11.7546C58.023 11.9418 57.6889 12.0949 57.3039 12.214C58.1985 12.3841 58.8695 12.7046 59.3169 13.1753C59.7699 13.6403 59.9964 14.2529 59.9964 15.0128C59.9964 15.5289 59.9001 15.9996 59.7076 16.425C59.5207 16.8503 59.2433 17.2161 58.8752 17.5224C58.5128 17.8287 58.0655 18.0668 57.5332 18.237C57.0009 18.4015 56.395 18.4837 55.7155 18.4837H51.4176V6.29308H55.2993Z" fill="black"/>
<path d="M63.4401 5.9528V18.4837H61.9282V5.9528H63.4401Z" fill="black"/>
<path d="M69.5187 9.72993C70.1473 9.72993 70.7135 9.83485 71.2175 10.0447C71.7215 10.2545 72.1518 10.5523 72.5086 10.9379C72.8653 11.3236 73.1371 11.7915 73.324 12.3416C73.5165 12.8861 73.6128 13.4957 73.6128 14.1706C73.6128 14.8512 73.5165 15.4637 73.324 16.0081C73.1371 16.5526 72.8653 17.0176 72.5086 17.4033C72.1518 17.789 71.7215 18.0867 71.2175 18.2965C70.7135 18.5007 70.1473 18.6028 69.5187 18.6028C68.8845 18.6028 68.3126 18.5007 67.803 18.2965C67.299 18.0867 66.8687 17.789 66.5119 17.4033C66.1552 17.0176 65.8806 16.5526 65.688 16.0081C65.5012 15.4637 65.4077 14.8512 65.4077 14.1706C65.4077 13.4957 65.5012 12.8861 65.688 12.3416C65.8806 11.7915 66.1552 11.3236 66.5119 10.9379C66.8687 10.5523 67.299 10.2545 67.803 10.0447C68.3126 9.83485 68.8845 9.72993 69.5187 9.72993ZM69.5187 17.4203C70.3681 17.4203 71.0023 17.1367 71.4214 16.5696C71.8404 15.9968 72.0499 15.2 72.0499 14.1791C72.0499 13.1526 71.8404 12.3529 71.4214 11.7801C71.0023 11.2073 70.3681 10.9209 69.5187 10.9209C69.0884 10.9209 68.7118 10.9946 68.3891 11.1421C68.072 11.2896 67.8058 11.5022 67.5906 11.7801C67.3811 12.058 67.2226 12.4012 67.115 12.8095C67.0131 13.2122 66.9621 13.6687 66.9621 14.1791C66.9621 15.2 67.1716 15.9968 67.5906 16.5696C68.0153 17.1367 68.658 17.4203 69.5187 17.4203Z" fill="black"/>
<path d="M81.5185 11.3973C81.4732 11.4597 81.4279 11.5079 81.3826 11.5419C81.3373 11.576 81.275 11.593 81.1957 11.593C81.1108 11.593 81.0174 11.559 80.9154 11.4909C80.8135 11.4172 80.6861 11.3378 80.5332 11.2527C80.386 11.1676 80.202 11.0911 79.9811 11.023C79.7659 10.9493 79.4998 10.9124 79.1827 10.9124C78.758 10.9124 78.3843 10.989 78.0615 11.1421C77.7388 11.2896 77.467 11.5051 77.2461 11.7886C77.0309 12.0722 76.8667 12.4153 76.7535 12.818C76.6459 13.2207 76.5921 13.6715 76.5921 14.1706C76.5921 14.6924 76.6516 15.1574 76.7705 15.5658C76.8894 15.9684 77.0564 16.3087 77.2716 16.5866C77.4924 16.8588 77.7557 17.0687 78.0615 17.2161C78.373 17.3579 78.7212 17.4288 79.1063 17.4288C79.4743 17.4288 79.7773 17.3863 80.0151 17.3012C80.2529 17.2105 80.4483 17.1112 80.6012 17.0035C80.7597 16.8957 80.89 16.7993 80.9919 16.7142C81.0995 16.6235 81.2042 16.5781 81.3062 16.5781C81.4307 16.5781 81.527 16.6263 81.5949 16.7227L82.0196 17.2757C81.8328 17.5082 81.6204 17.7067 81.3826 17.8712C81.1448 18.0357 80.8871 18.1746 80.6097 18.288C80.3379 18.3958 80.0519 18.4752 79.7518 18.5262C79.4517 18.5773 79.1459 18.6028 78.8345 18.6028C78.2965 18.6028 77.7954 18.5035 77.3311 18.305C76.8724 18.1066 76.4732 17.8201 76.1334 17.4458C75.7937 17.0659 75.5275 16.6008 75.335 16.0507C75.1425 15.5006 75.0462 14.8739 75.0462 14.1706C75.0462 13.5298 75.134 12.9371 75.3095 12.3926C75.4907 11.8482 75.7512 11.3803 76.091 10.989C76.4364 10.592 76.8582 10.2829 77.3565 10.0617C77.8605 9.84053 78.4381 9.72993 79.0893 9.72993C79.6952 9.72993 80.2274 9.82918 80.6861 10.0277C81.1504 10.2205 81.561 10.4956 81.9177 10.8529L81.5185 11.3973Z" fill="black"/>
<path d="M85.163 5.9528V13.3284H85.5537C85.667 13.3284 85.7604 13.3142 85.834 13.2859C85.9133 13.2519 85.9954 13.1866 86.0803 13.0902L88.7984 10.1723C88.8776 10.0759 88.9597 10.0022 89.0447 9.95112C89.1353 9.8944 89.2542 9.86605 89.4014 9.86605H90.7689L87.6007 13.2433C87.4478 13.4362 87.2836 13.5865 87.1081 13.6942C87.21 13.7623 87.3006 13.8417 87.3799 13.9324C87.4648 14.0175 87.5441 14.1167 87.6177 14.2302L90.9813 18.4837H89.6308C89.5005 18.4837 89.3873 18.4638 89.291 18.4241C89.2004 18.3788 89.1211 18.2994 89.0532 18.1859L86.2247 14.6555C86.1398 14.5364 86.0549 14.4599 85.9699 14.4258C85.8906 14.3861 85.7661 14.3663 85.5962 14.3663H85.163V18.4837H83.6426V5.9528H85.163Z" fill="black"/>
<path d="M106.861 6.95337L101.901 19.2546H99.837L94.8766 6.95337H96.7112C96.9094 6.95337 97.0708 7.00158 97.1954 7.09799C97.32 7.1944 97.4134 7.31917 97.4757 7.4723L100.372 14.9755C100.468 15.2194 100.559 15.4888 100.644 15.7837C100.734 16.0729 100.819 16.3764 100.899 16.694C100.967 16.3764 101.04 16.0729 101.12 15.7837C101.199 15.4888 101.287 15.2194 101.383 14.9755L104.262 7.4723C104.308 7.34186 104.395 7.22276 104.526 7.115C104.661 7.00725 104.826 6.95337 105.018 6.95337H106.861Z" fill="#0055B7"/>
<path d="M112.125 13.138C112.544 13.138 112.909 13.087 113.22 12.9849C113.532 12.8771 113.79 12.7268 113.993 12.534C114.203 12.3355 114.359 12.0973 114.461 11.8194C114.562 11.5358 114.613 11.2211 114.613 10.8751C114.613 10.5462 114.562 10.2484 114.461 9.98188C114.359 9.71533 114.206 9.48847 114.002 9.30132C113.798 9.11416 113.54 8.97238 113.229 8.87597C112.917 8.77388 112.549 8.72284 112.125 8.72284H110.417V13.138H112.125ZM112.125 6.95337C112.946 6.95337 113.656 7.04978 114.257 7.24261C114.857 7.43544 115.352 7.70483 115.743 8.05078C116.134 8.39673 116.423 8.81074 116.609 9.29281C116.802 9.77488 116.898 10.3023 116.898 10.8751C116.898 11.4706 116.799 12.0179 116.601 12.517C116.403 13.0104 116.105 13.4358 115.709 13.793C115.313 14.1503 114.814 14.4282 114.214 14.6267C113.62 14.8252 112.923 14.9245 112.125 14.9245H110.417V19.2546H108.133V6.95337H112.125Z" fill="#0055B7"/>
<path d="M129.004 6.95337V19.2546H127.832C127.651 19.2546 127.498 19.2262 127.374 19.1695C127.255 19.1071 127.139 19.005 127.025 18.8633L120.612 10.6624C120.646 11.0368 120.663 11.3827 120.663 11.7003V19.2546H118.65V6.95337H119.848C119.944 6.95337 120.026 6.95904 120.094 6.97038C120.168 6.97605 120.23 6.99307 120.281 7.02143C120.338 7.04411 120.392 7.08098 120.443 7.13202C120.494 7.17739 120.55 7.23977 120.612 7.31917L127.051 15.554C127.034 15.3555 127.02 15.1598 127.008 14.967C126.997 14.7742 126.991 14.5955 126.991 14.4311V6.95337H129.004Z" fill="#0055B7"/>
</svg>
