<svg width="905" height="166" viewBox="0 0 905 166" fill="none" xmlns="http://www.w3.org/2000/svg">
<path d="M80.2353 164.686C78.5988 165.539 76.7064 165.521 75.0857 164.638C62.9242 158.015 11.5906 128.256 11.5874 97.7877C11.5845 69.9067 11.5863 38.3573 11.5871 27.2008C11.5873 24.6918 13.1748 22.4713 15.544 21.6456L75.7055 0.676615C76.9626 0.238474 78.3309 0.238474 79.588 0.676615L139.749 21.6454C142.118 22.4713 143.706 24.687 143.706 27.1962C143.706 38.1121 143.706 68.6899 143.706 97.7877C143.706 129.706 92.4469 158.321 80.2353 164.686Z" fill="#0075FF"/>
<path d="M50.6873 93.6235L51.5403 96.2528C52.8352 100.244 57.1039 102.425 61.0748 101.123C64.6099 99.9644 66.7172 96.4366 66.2234 92.86C68.002 93.862 70.1759 94.1423 72.2672 93.4569C74.8333 92.6158 76.6471 90.5263 77.2598 88.076L86.1731 93.1554C87.0382 93.6485 87.5729 94.5709 87.5729 95.5706L87.5729 97.1592C87.5729 97.8151 88.1019 98.3469 88.7546 98.3469C89.4135 98.3469 89.9451 97.8053 89.9361 97.143L89.9041 94.7685C89.8874 93.5355 89.2319 92.4005 88.1748 91.7746L82.3929 88.351C78.9887 86.3353 76.8732 82.6844 76.8084 78.7137L76.7496 75.1084C76.7475 74.9769 76.8757 74.883 76.9995 74.9254L90.3449 79.4888C90.4164 79.5133 90.48 79.5334 90.5523 79.5553C91.7797 79.9275 103.883 83.7959 104.305 91.7218C104.84 101.785 104.919 112.555 99.0882 120.753C94.9197 126.614 88.7607 130.714 79.7432 131.199C64.5796 132.014 51.1887 123.598 51.0101 106.004C50.9538 100.459 50.8302 96.4768 50.6873 93.6235Z" fill="white"/>
<path d="M59.4098 71.0123C58.5034 68.2184 60.022 65.2149 62.8016 64.3038C65.5812 63.3928 68.5693 64.9191 69.4757 67.713L74.9457 84.5739C75.8521 87.3678 74.3335 90.3713 71.5539 91.2823C68.7743 92.1934 65.7862 90.6671 64.8798 87.8731L59.4098 71.0123Z" fill="white"/>
<path d="M48.7317 80.2642C47.8253 77.4703 49.3439 74.4668 52.1235 73.5558C54.9031 72.6447 57.8912 74.1711 58.7976 76.965L63.7531 92.2401C64.6595 95.034 63.141 98.0375 60.3614 98.9486C57.5818 99.8596 54.5937 98.3333 53.6873 95.5394L48.7317 80.2642Z" fill="white"/>
<path d="M63.7849 42.8274C62.749 39.6344 64.4845 36.2019 67.6612 35.1606C70.8378 34.1194 74.2528 35.8638 75.2887 39.0569L86.6836 74.181C86.8635 74.7355 87.6577 74.6928 87.7778 74.1222L94.7338 41.0567C95.425 37.7709 98.6355 35.6704 101.905 36.3652C105.174 37.06 107.263 40.287 106.572 43.5728L98.7329 80.8364C95.2698 78.6989 91.7494 77.5807 91.0685 77.3742C91.013 77.3574 90.9758 77.3455 90.9365 77.332L77.5911 72.7686C75.9807 72.2179 74.3141 73.4384 74.342 75.1479L74.3458 75.3808L63.7849 42.8274Z" fill="white"/>
<rect x="2.16258" y="95.977" width="149.95" height="58.8352" rx="9.18708" fill="#CE0707" stroke="white" stroke-width="3.67483"/>
<path d="M49.1544 137.31C50.2515 137.31 51.173 137.178 51.919 136.913C52.665 136.648 53.2574 136.295 53.6963 135.854C54.1497 135.413 54.4715 134.898 54.6617 134.31C54.8665 133.721 54.9689 133.096 54.9689 132.434C54.9689 131.743 54.8592 131.125 54.6397 130.581C54.4203 130.022 54.0766 129.551 53.6085 129.169C53.1404 128.772 52.5334 128.47 51.7874 128.264C51.056 128.058 50.171 127.955 49.1325 127.955H43.1864V137.31H49.1544ZM43.1864 114.628V123.851H47.8818C49.9004 123.851 51.4217 123.483 52.4456 122.748C53.4842 122.013 54.0034 120.843 54.0034 119.24C54.0034 117.578 53.5354 116.394 52.5992 115.687C51.663 114.981 50.2003 114.628 48.2109 114.628H43.1864ZM48.2109 110.039C50.2881 110.039 52.0653 110.238 53.5427 110.635C55.0201 111.032 56.2268 111.598 57.163 112.334C58.1138 113.069 58.8086 113.959 59.2474 115.003C59.6862 116.048 59.9057 117.225 59.9057 118.534C59.9057 119.284 59.796 120.005 59.5765 120.696C59.3571 121.373 59.0134 122.013 58.5453 122.616C58.0918 123.204 57.5067 123.741 56.79 124.226C56.0879 124.712 55.2468 125.124 54.2667 125.462C58.6257 126.447 60.8053 128.816 60.8053 132.567C60.8053 133.92 60.5493 135.17 60.0373 136.317C59.5253 137.465 58.7793 138.458 57.7993 139.296C56.8192 140.12 55.6125 140.767 54.179 141.238C52.7455 141.708 51.1072 141.944 49.2641 141.944H37.2842V110.039H48.2109Z" fill="white"/>
<path d="M79.5154 128.021C79.5154 127.315 79.413 126.653 79.2082 126.036C79.018 125.403 78.7255 124.851 78.3305 124.381C77.9356 123.91 77.4309 123.542 76.8166 123.278C76.2168 122.998 75.5147 122.858 74.7102 122.858C73.1451 122.858 71.909 123.307 71.0021 124.204C70.1098 125.102 69.5394 126.374 69.2907 128.021H79.5154ZM69.181 131.309C69.2688 132.471 69.4735 133.479 69.7954 134.332C70.1172 135.17 70.5414 135.869 71.068 136.428C71.5945 136.972 72.2162 137.384 72.933 137.663C73.6643 137.928 74.4689 138.061 75.3465 138.061C76.2242 138.061 76.9775 137.958 77.6065 137.752C78.2501 137.546 78.8059 137.318 79.274 137.068C79.7567 136.818 80.1736 136.59 80.5246 136.384C80.8903 136.178 81.2414 136.075 81.5778 136.075C82.0313 136.075 82.3677 136.244 82.5871 136.582L84.145 138.568C83.5452 139.274 82.8724 139.87 82.1264 140.355C81.3804 140.826 80.5978 141.208 79.7786 141.503C78.9741 141.782 78.1477 141.981 77.2993 142.098C76.4655 142.216 75.6537 142.275 74.8638 142.275C73.2987 142.275 71.8432 142.017 70.4975 141.503C69.1517 140.973 67.9815 140.201 66.9869 139.186C65.9922 138.156 65.2096 136.891 64.6392 135.391C64.0687 133.876 63.7834 132.125 63.7834 130.14C63.7834 128.595 64.0321 127.146 64.5294 125.793C65.0268 124.425 65.7362 123.241 66.6577 122.241C67.5939 121.226 68.7275 120.424 70.0587 119.836C71.4044 119.247 72.9183 118.953 74.6005 118.953C76.0194 118.953 77.3285 119.181 78.528 119.637C79.7274 120.093 80.7587 120.762 81.6217 121.645C82.4847 122.513 83.1576 123.586 83.6403 124.866C84.1376 126.131 84.3863 127.58 84.3863 129.213C84.3863 130.037 84.2986 130.596 84.123 130.89C83.9475 131.169 83.6111 131.309 83.1137 131.309H69.181Z" fill="white"/>
<path d="M95.743 142.297C93.7829 142.297 92.2763 141.745 91.2231 140.642C90.1845 139.524 89.6653 137.987 89.6653 136.031V123.388H87.3614C87.0689 123.388 86.8202 123.292 86.6154 123.101C86.4106 122.91 86.3082 122.623 86.3082 122.241V120.078L89.9286 119.483L91.0695 113.305C91.1426 113.01 91.2816 112.782 91.4864 112.621C91.6912 112.459 91.9545 112.378 92.2763 112.378H95.0848V119.505H101.097V123.388H95.0848V135.656C95.0848 136.362 95.253 136.913 95.5894 137.31C95.9405 137.708 96.4159 137.906 97.0156 137.906C97.352 137.906 97.63 137.869 97.8494 137.796C98.0834 137.708 98.2809 137.619 98.4418 137.531C98.6173 137.443 98.7709 137.362 98.9025 137.288C99.0342 137.2 99.1658 137.156 99.2975 137.156C99.4584 137.156 99.59 137.2 99.6924 137.288C99.7948 137.362 99.9045 137.48 100.022 137.641L101.645 140.289C100.855 140.951 99.9484 141.451 98.9245 141.789C97.9006 142.128 96.8401 142.297 95.743 142.297Z" fill="white"/>
<path d="M116.459 132.28C114.894 132.353 113.577 132.493 112.509 132.699C111.441 132.89 110.586 133.14 109.942 133.449C109.298 133.758 108.838 134.118 108.56 134.53C108.282 134.942 108.143 135.391 108.143 135.876C108.143 136.832 108.421 137.516 108.977 137.928C109.547 138.34 110.286 138.546 111.193 138.546C112.304 138.546 113.263 138.347 114.067 137.95C114.886 137.538 115.683 136.921 116.459 136.097V132.28ZM104.04 122.461C106.629 120.078 109.745 118.887 113.387 118.887C114.703 118.887 115.881 119.107 116.919 119.549C117.958 119.975 118.836 120.578 119.552 121.358C120.269 122.123 120.81 123.042 121.176 124.116C121.556 125.19 121.747 126.367 121.747 127.646V141.944H119.289C118.777 141.944 118.382 141.87 118.104 141.723C117.826 141.561 117.607 141.245 117.446 140.774L116.963 139.142C116.393 139.657 115.837 140.113 115.296 140.51C114.755 140.892 114.191 141.216 113.606 141.48C113.021 141.745 112.392 141.944 111.719 142.076C111.061 142.223 110.33 142.297 109.525 142.297C108.574 142.297 107.697 142.172 106.892 141.922C106.088 141.657 105.393 141.267 104.808 140.752C104.223 140.238 103.769 139.598 103.447 138.833C103.126 138.068 102.965 137.178 102.965 136.163C102.965 135.589 103.06 135.023 103.25 134.464C103.44 133.89 103.747 133.346 104.172 132.831C104.61 132.317 105.174 131.831 105.861 131.375C106.549 130.919 107.39 130.522 108.384 130.184C109.394 129.845 110.564 129.573 111.895 129.367C113.226 129.147 114.747 129.014 116.459 128.97V127.646C116.459 126.131 116.137 125.013 115.493 124.293C114.85 123.557 113.921 123.189 112.707 123.189C111.829 123.189 111.098 123.292 110.513 123.498C109.942 123.704 109.437 123.939 108.999 124.204C108.56 124.454 108.158 124.682 107.792 124.888C107.441 125.094 107.046 125.197 106.607 125.197C106.227 125.197 105.905 125.102 105.642 124.91C105.378 124.704 105.166 124.469 105.005 124.204L104.04 122.461Z" fill="white"/>
<path d="M262.9 95.1068L252.603 66.8059C252.095 65.5506 251.569 64.0601 251.023 62.3342C250.477 60.6083 249.931 58.7451 249.385 56.7446C248.877 58.7451 248.351 60.6279 247.805 62.393C247.259 64.1189 246.732 65.6291 246.225 66.9235L235.986 95.1068H262.9ZM290.693 127.232H278.523C277.157 127.232 276.046 126.899 275.187 126.232C274.329 125.526 273.686 124.663 273.257 123.643L266.938 106.286H231.89L225.571 123.643C225.259 124.545 224.654 125.369 223.757 126.114C222.86 126.86 221.748 127.232 220.422 127.232H208.135L241.427 42.1528H257.459L290.693 127.232Z" fill="black"/>
<path d="M333.592 82.2802C331.953 80.2797 330.159 78.8676 328.209 78.0439C326.297 77.2201 324.23 76.8083 322.007 76.8083C319.822 76.8083 317.852 77.2201 316.097 78.0439C314.342 78.8676 312.84 80.1228 311.592 81.8095C310.344 83.4569 309.388 85.5751 308.725 88.164C308.062 90.7136 307.73 93.7339 307.73 97.225C307.73 100.755 308.003 103.756 308.549 106.227C309.134 108.659 309.953 110.66 311.007 112.229C312.06 113.758 313.347 114.876 314.868 115.582C316.39 116.249 318.086 116.583 319.959 116.583C322.962 116.583 325.517 115.955 327.624 114.7C329.73 113.445 331.719 111.66 333.592 109.346V82.2802ZM348.044 39.7993V127.232H339.209C337.297 127.232 336.088 126.35 335.581 124.585L334.352 118.76C331.934 121.545 329.145 123.8 325.985 125.526C322.865 127.252 319.218 128.115 315.044 128.115C311.767 128.115 308.764 127.428 306.033 126.055C303.303 124.683 300.943 122.702 298.954 120.113C297.003 117.485 295.482 114.249 294.39 110.405C293.337 106.561 292.81 102.167 292.81 97.225C292.81 92.7533 293.415 88.5954 294.624 84.7514C295.833 80.9073 297.569 77.5732 299.831 74.749C302.094 71.9247 304.805 69.7281 307.964 68.1591C311.124 66.5509 314.673 65.7468 318.613 65.7468C321.968 65.7468 324.835 66.2763 327.214 67.3354C329.593 68.3945 331.719 69.8262 333.592 71.6306V39.7993H348.044Z" fill="black"/>
<path d="M395.306 118.171C398.544 118.171 401.333 117.799 403.673 117.053C406.013 116.308 407.925 115.269 409.407 113.935C410.928 112.562 412.04 110.954 412.742 109.11C413.444 107.227 413.795 105.168 413.795 102.932C413.795 98.5783 412.254 95.146 409.173 92.6356C406.091 90.086 401.469 88.8112 395.306 88.8112H377.168V118.171H395.306ZM377.168 51.9199V80.6916H392.146C395.345 80.6916 398.114 80.3385 400.455 79.6325C402.834 78.9264 404.785 77.9458 406.306 76.6906C407.866 75.4354 409.017 73.9252 409.758 72.1601C410.499 70.3557 410.87 68.3945 410.87 66.2763C410.87 61.2947 409.387 57.6664 406.423 55.3913C403.458 53.077 398.856 51.9199 392.615 51.9199H377.168ZM392.615 42.9177C397.763 42.9177 402.191 43.4276 405.896 44.4475C409.641 45.4674 412.703 46.9187 415.082 48.8015C417.501 50.6843 419.276 52.9986 420.407 55.7444C421.538 58.4509 422.104 61.5105 422.104 64.923C422.104 67.002 421.772 69.0025 421.109 70.9245C420.485 72.8073 419.529 74.5724 418.242 76.2199C416.955 77.8674 415.316 79.3579 413.327 80.6916C411.377 81.986 409.075 83.0451 406.423 83.8688C412.586 85.0456 417.208 87.2618 420.29 90.5175C423.41 93.7339 424.971 97.9703 424.971 103.226C424.971 106.796 424.307 110.052 422.981 112.994C421.694 115.935 419.783 118.465 417.247 120.584C414.751 122.702 411.669 124.349 408.003 125.526C404.336 126.663 400.162 127.232 395.482 127.232H365.875V42.9177H392.615Z" fill="black"/>
<path d="M448.693 40.5642V127.232H438.278V40.5642H448.693Z" fill="black"/>
<path d="M490.566 66.6882C494.896 66.6882 498.796 67.4138 502.268 68.8652C505.74 70.3165 508.704 72.3758 511.162 75.0431C513.619 77.7104 515.491 80.9465 516.778 84.7514C518.105 88.517 518.768 92.7337 518.768 97.4015C518.768 102.109 518.105 106.345 516.778 110.11C515.491 113.876 513.619 117.093 511.162 119.76C508.704 122.427 505.74 124.486 502.268 125.938C498.796 127.35 494.896 128.056 490.566 128.056C486.197 128.056 482.258 127.35 478.747 125.938C475.275 124.486 472.311 122.427 469.853 119.76C467.396 117.093 465.504 113.876 464.178 110.11C462.891 106.345 462.247 102.109 462.247 97.4015C462.247 92.7337 462.891 88.517 464.178 84.7514C465.504 80.9465 467.396 77.7104 469.853 75.0431C472.311 72.3758 475.275 70.3165 478.747 68.8652C482.258 67.4138 486.197 66.6882 490.566 66.6882ZM490.566 119.878C496.417 119.878 500.786 117.916 503.672 113.994C506.559 110.032 508.002 104.521 508.002 97.4603C508.002 90.3606 506.559 84.8298 503.672 80.8681C500.786 76.9063 496.417 74.9255 490.566 74.9255C487.601 74.9255 485.007 75.4354 482.784 76.4552C480.6 77.4751 478.766 78.946 477.284 80.8681C475.841 82.7901 474.749 85.1632 474.008 87.9874C473.305 90.7724 472.954 93.9301 472.954 97.4603C472.954 104.521 474.398 110.032 477.284 113.994C480.21 117.916 484.637 119.878 490.566 119.878Z" fill="black"/>
<path d="M573.227 78.2204C572.915 78.6519 572.603 78.9853 572.291 79.2206C571.979 79.456 571.55 79.5736 571.004 79.5736C570.419 79.5736 569.775 79.3383 569.073 78.8676C568.371 78.3577 567.493 77.8085 566.44 77.2201C565.426 76.6318 564.158 76.1022 562.637 75.6315C561.154 75.1216 559.321 74.8666 557.137 74.8666C554.211 74.8666 551.637 75.3962 549.413 76.4552C547.19 77.4751 545.318 78.9657 543.796 80.9269C542.314 82.8882 541.183 85.2613 540.403 88.0463C539.662 90.8313 539.291 93.9497 539.291 97.4015C539.291 101.01 539.701 104.227 540.52 107.051C541.339 109.836 542.49 112.189 543.972 114.111C545.493 115.994 547.307 117.446 549.413 118.465C551.559 119.446 553.958 119.936 556.61 119.936C559.146 119.936 561.232 119.642 562.871 119.054C564.509 118.426 565.855 117.74 566.908 116.994C568 116.249 568.897 115.582 569.599 114.994C570.341 114.366 571.062 114.053 571.764 114.053C572.622 114.053 573.286 114.386 573.754 115.053L576.679 118.877C575.392 120.486 573.929 121.858 572.291 122.996C570.653 124.133 568.878 125.094 566.966 125.879C565.094 126.624 563.124 127.173 561.057 127.526C558.99 127.879 556.883 128.056 554.738 128.056C551.032 128.056 547.58 127.37 544.382 125.997C541.222 124.624 538.472 122.643 536.132 120.054C533.791 117.426 531.958 114.209 530.632 110.405C529.305 106.6 528.642 102.265 528.642 97.4015C528.642 92.9691 529.247 88.87 530.456 85.1044C531.704 81.3388 533.499 78.1027 535.839 75.3962C538.218 72.6504 541.124 70.5126 544.557 68.9829C548.029 67.4531 552.007 66.6882 556.493 66.6882C560.667 66.6882 564.333 67.3746 567.493 68.7475C570.692 70.0812 573.52 71.9836 575.977 74.4548L573.227 78.2204Z" fill="black"/>
<path d="M598.332 40.5642V91.5766H601.024C601.804 91.5766 602.448 91.4785 602.955 91.2824C603.501 91.047 604.066 90.5959 604.652 89.9291L623.375 69.7477C623.921 69.0809 624.486 68.571 625.072 68.218C625.696 67.8257 626.515 67.6296 627.529 67.6296H636.949L615.125 90.9882C614.072 92.3218 612.94 93.3613 611.731 94.1066C612.433 94.5773 613.057 95.1264 613.604 95.754C614.189 96.3424 614.735 97.0289 615.242 97.8134L638.412 127.232H629.109C628.212 127.232 627.431 127.095 626.768 126.82C626.144 126.507 625.598 125.957 625.13 125.173L605.646 100.755C605.061 99.9315 604.476 99.402 603.891 99.1666C603.345 98.8921 602.487 98.7548 601.316 98.7548H598.332V127.232H587.859V40.5642H598.332Z" fill="black"/>
<path d="M751.468 43.8066L717.298 128.886H703.08L668.911 43.8066H681.549C682.914 43.8066 684.026 44.1401 684.884 44.8069C685.742 45.4737 686.386 46.3367 686.815 47.3957L706.767 99.2907C707.43 100.977 708.054 102.841 708.639 104.88C709.263 106.881 709.848 108.979 710.394 111.176C710.862 108.979 711.369 106.881 711.915 104.88C712.462 102.841 713.066 100.977 713.729 99.2907L733.564 47.3957C733.876 46.4936 734.481 45.6698 735.378 44.9246C736.314 44.1793 737.445 43.8066 738.772 43.8066H751.468Z" fill="#0055B7"/>
<path d="M787.725 86.5817C790.612 86.5817 793.128 86.2287 795.273 85.5226C797.419 84.7773 799.193 83.7379 800.598 82.4042C802.041 81.0313 803.114 79.3839 803.816 77.4618C804.518 75.5006 804.869 73.3236 804.869 70.9308C804.869 68.6558 804.518 66.5965 803.816 64.7529C803.114 62.9093 802.06 61.3403 800.656 60.0459C799.252 58.7514 797.477 57.7708 795.332 57.104C793.186 56.3979 790.651 56.0449 787.725 56.0449H775.965V86.5817H787.725ZM787.725 43.8066C793.381 43.8066 798.277 44.4735 802.411 45.8071C806.546 47.1408 809.959 49.004 812.651 51.3967C815.342 53.7895 817.332 56.6529 818.619 59.987C819.945 63.3212 820.608 66.9691 820.608 70.9308C820.608 75.0495 819.925 78.8347 818.56 82.2865C817.195 85.6991 815.147 88.641 812.417 91.1122C809.686 93.5834 806.254 95.5054 802.119 96.8783C798.023 98.2512 793.225 98.9376 787.725 98.9376H775.965V128.886H760.226V43.8066H787.725Z" fill="#0055B7"/>
<path d="M904.002 43.8066V128.886H895.927C894.679 128.886 893.626 128.69 892.768 128.298C891.948 127.866 891.149 127.16 890.369 126.18L846.193 69.4599C846.428 72.0488 846.545 74.4415 846.545 76.6381V128.886H832.678V43.8066H840.928C841.591 43.8066 842.156 43.8459 842.624 43.9243C843.131 43.9635 843.561 44.0812 843.912 44.2773C844.302 44.4342 844.672 44.6892 845.023 45.0422C845.374 45.356 845.764 45.7875 846.193 46.3367L890.544 103.292C890.427 101.919 890.33 100.565 890.252 99.2318C890.174 97.8982 890.135 96.6626 890.135 95.525V43.8066H904.002Z" fill="#0055B7"/>
</svg>
