<svg width="905" height="166" viewBox="0 0 905 166" fill="none" xmlns="http://www.w3.org/2000/svg">
<path d="M80.2353 164.686C78.5988 165.539 76.7064 165.521 75.0857 164.638C62.9242 158.015 11.5906 128.256 11.5874 97.7877C11.5845 69.9067 11.5863 38.3573 11.5871 27.2008C11.5873 24.6918 13.1748 22.4713 15.544 21.6456L75.7055 0.676599C76.9626 0.238458 78.3309 0.238459 79.588 0.6766L139.749 21.6454C142.118 22.4713 143.706 24.687 143.706 27.1962C143.706 38.1121 143.706 68.6899 143.706 97.7877C143.706 129.706 92.4469 158.321 80.2353 164.686Z" fill="#0075FF"/>
<path d="M50.6873 93.6235L51.5403 96.2528C52.8352 100.244 57.1039 102.425 61.0748 101.123C64.6099 99.9644 66.7172 96.4366 66.2234 92.86C68.002 93.862 70.1759 94.1423 72.2672 93.4569C74.8333 92.6158 76.6471 90.5263 77.2598 88.076L86.1731 93.1554C87.0382 93.6485 87.5729 94.5709 87.5729 95.5706L87.5729 97.1591C87.5729 97.8151 88.1019 98.3469 88.7546 98.3469C89.4135 98.3469 89.9451 97.8053 89.9361 97.143L89.9041 94.7685C89.8874 93.5355 89.2319 92.4005 88.1748 91.7745L82.3929 88.351C78.9887 86.3353 76.8732 82.6844 76.8084 78.7137L76.7496 75.1084C76.7475 74.9769 76.8757 74.883 76.9995 74.9254L90.3449 79.4888C90.4164 79.5133 90.48 79.5334 90.5523 79.5553C91.7797 79.9275 103.883 83.7959 104.305 91.7218C104.84 101.785 104.919 112.555 99.0882 120.753C94.9197 126.614 88.7607 130.714 79.7432 131.199C64.5796 132.014 51.1887 123.598 51.0101 106.004C50.9538 100.459 50.8302 96.4768 50.6873 93.6235Z" fill="white"/>
<path d="M59.4098 71.0123C58.5034 68.2183 60.022 65.2149 62.8016 64.3038C65.5812 63.3928 68.5693 64.9191 69.4757 67.713L74.9457 84.5739C75.8521 87.3678 74.3335 90.3713 71.5539 91.2823C68.7743 92.1934 65.7862 90.667 64.8798 87.8731L59.4098 71.0123Z" fill="white"/>
<path d="M48.7317 80.2642C47.8253 77.4703 49.3439 74.4668 52.1235 73.5558C54.9031 72.6447 57.8912 74.1711 58.7976 76.965L63.7531 92.2401C64.6595 95.034 63.141 98.0375 60.3614 98.9486C57.5818 99.8596 54.5937 98.3333 53.6873 95.5394L48.7317 80.2642Z" fill="white"/>
<path d="M63.7849 42.8274C62.749 39.6344 64.4845 36.2018 67.6612 35.1606C70.8378 34.1194 74.2528 35.8638 75.2887 39.0569L86.6836 74.181C86.8635 74.7355 87.6577 74.6928 87.7778 74.1222L94.7338 41.0567C95.425 37.7709 98.6355 35.6704 101.905 36.3652C105.174 37.06 107.263 40.287 106.572 43.5728L98.7329 80.8364C95.2698 78.6989 91.7494 77.5807 91.0685 77.3742C91.013 77.3573 90.9758 77.3455 90.9365 77.332L77.5911 72.7686C75.9807 72.2179 74.3141 73.4384 74.342 75.1479L74.3458 75.3808L63.7849 42.8274Z" fill="white"/>
<path d="M263.967 94.8817L253.627 66.5808C253.118 65.3255 252.589 63.835 252.041 62.1091C251.493 60.3832 250.944 58.52 250.396 56.5195C249.887 58.52 249.358 60.4028 248.81 62.1679C248.261 63.8938 247.733 65.404 247.224 66.6984L236.942 94.8817H263.967ZM291.873 127.007H279.653C278.282 127.007 277.166 126.674 276.304 126.007C275.443 125.301 274.796 124.438 274.365 123.418L268.021 106.061H232.83L226.485 123.418C226.172 124.32 225.565 125.144 224.664 125.889C223.763 126.634 222.647 127.007 221.315 127.007H208.978L242.406 41.9277H258.503L291.873 127.007Z" fill="black"/>
<path d="M334.947 82.0551C333.302 80.0546 331.5 78.6425 329.542 77.8188C327.623 76.995 325.547 76.5832 323.314 76.5832C321.121 76.5832 319.143 76.995 317.381 77.8188C315.618 78.6425 314.11 79.8977 312.857 81.5844C311.604 83.2318 310.644 85.35 309.978 87.9389C309.312 90.4885 308.98 93.5088 308.98 96.9999C308.98 100.53 309.254 103.531 309.802 106.002C310.39 108.434 311.212 110.435 312.269 112.004C313.327 113.533 314.619 114.651 316.147 115.357C317.674 116.024 319.378 116.357 321.258 116.357C324.274 116.357 326.839 115.73 328.954 114.475C331.069 113.219 333.067 111.435 334.947 109.12V82.0551ZM349.458 39.5742V127.007H340.586C338.667 127.007 337.453 126.125 336.944 124.359L335.71 118.534C333.282 121.319 330.482 123.575 327.309 125.301C324.176 127.027 320.514 127.89 316.323 127.89C313.033 127.89 310.017 127.203 307.276 125.83C304.534 124.457 302.165 122.477 300.167 119.888C298.209 117.26 296.681 114.024 295.585 110.18C294.527 106.335 293.999 101.942 293.999 96.9999C293.999 92.5282 294.606 88.3703 295.82 84.5263C297.034 80.6822 298.777 77.3481 301.048 74.5239C303.32 71.6996 306.042 69.503 309.215 67.934C312.387 66.3258 315.951 65.5217 319.907 65.5217C323.275 65.5217 326.154 66.0512 328.543 67.1103C330.932 68.1694 333.067 69.6011 334.947 71.4054V39.5742H349.458Z" fill="black"/>
<path d="M396.913 117.946C400.164 117.946 402.964 117.573 405.314 116.828C407.664 116.083 409.583 115.043 411.071 113.71C412.599 112.337 413.715 110.729 414.42 108.885C415.125 107.002 415.477 104.943 415.477 102.707C415.477 98.3531 413.93 94.9209 410.836 92.4105C407.742 89.8609 403.101 88.5861 396.913 88.5861H378.701V117.946H396.913ZM378.701 51.6948V80.4665H393.74C396.952 80.4665 399.733 80.1134 402.083 79.4074C404.472 78.7013 406.43 77.7207 407.958 76.4655C409.524 75.2103 410.68 73.7001 411.424 71.935C412.168 70.1306 412.54 68.1694 412.54 66.0512C412.54 61.0696 411.052 57.4413 408.075 55.1662C405.098 52.8519 400.477 51.6948 394.21 51.6948H378.701ZM394.21 42.6926C399.38 42.6926 403.826 43.2025 407.546 44.2224C411.306 45.2423 414.381 46.6936 416.77 48.5764C419.198 50.4592 420.98 52.7735 422.116 55.5193C423.252 58.2258 423.82 61.2854 423.82 64.6979C423.82 66.7769 423.487 68.7774 422.821 70.6994C422.194 72.5822 421.235 74.3473 419.942 75.9948C418.65 77.6422 417.005 79.1328 415.007 80.4665C413.049 81.7609 410.738 82.82 408.075 83.6437C414.263 84.8205 418.904 87.0367 421.999 90.2924C425.132 93.5088 426.698 97.7452 426.698 103.001C426.698 106.571 426.033 109.827 424.701 112.768C423.409 115.71 421.489 118.24 418.944 120.358C416.437 122.477 413.343 124.124 409.661 125.301C405.98 126.438 401.789 127.007 397.089 127.007H367.362V42.6926H394.21Z" fill="black"/>
<path d="M450.517 40.3391V127.007H440.06V40.3391H450.517Z" fill="black"/>
<path d="M492.561 66.4631C496.909 66.4631 500.825 67.1887 504.311 68.6401C507.797 70.0914 510.774 72.1507 513.241 74.818C515.708 77.4853 517.588 80.7214 518.881 84.5263C520.213 88.2919 520.878 92.5086 520.878 97.1764C520.878 101.883 520.213 106.12 518.881 109.885C517.588 113.651 515.708 116.867 513.241 119.535C510.774 122.202 507.797 124.261 504.311 125.713C500.825 127.125 496.909 127.831 492.561 127.831C488.175 127.831 484.219 127.125 480.694 125.713C477.208 124.261 474.232 122.202 471.764 119.535C469.297 116.867 467.397 113.651 466.066 109.885C464.773 106.12 464.127 101.883 464.127 97.1764C464.127 92.5086 464.773 88.2919 466.066 84.5263C467.397 80.7214 469.297 77.4853 471.764 74.818C474.232 72.1507 477.208 70.0914 480.694 68.6401C484.219 67.1887 488.175 66.4631 492.561 66.4631ZM492.561 119.652C498.436 119.652 502.823 117.691 505.721 113.769C508.619 109.807 510.069 104.296 510.069 97.2352C510.069 90.1355 508.619 84.6047 505.721 80.643C502.823 76.6812 498.436 74.7004 492.561 74.7004C489.585 74.7004 486.98 75.2103 484.748 76.2301C482.555 77.25 480.714 78.7209 479.225 80.643C477.776 82.565 476.68 84.9381 475.935 87.7623C475.23 90.5473 474.878 93.705 474.878 97.2352C474.878 104.296 476.327 109.807 479.225 113.769C482.163 117.691 486.608 119.652 492.561 119.652Z" fill="black"/>
<path d="M575.56 77.9953C575.246 78.4268 574.933 78.7602 574.62 78.9955C574.306 79.2309 573.876 79.3485 573.327 79.3485C572.74 79.3485 572.094 79.1132 571.389 78.6425C570.684 78.1326 569.802 77.5834 568.745 76.995C567.727 76.4067 566.454 75.8771 564.926 75.4064C563.438 74.8965 561.597 74.6415 559.404 74.6415C556.466 74.6415 553.881 75.1711 551.649 76.2301C549.417 77.25 547.537 78.7406 546.009 80.7018C544.521 82.6631 543.385 85.0362 542.602 87.8212C541.857 90.6062 541.485 93.7246 541.485 97.1764C541.485 100.785 541.897 104.002 542.719 106.826C543.542 109.611 544.697 111.964 546.185 113.886C547.713 115.769 549.534 117.22 551.649 118.24C553.803 119.221 556.212 119.711 558.875 119.711C561.421 119.711 563.516 119.417 565.161 118.829C566.806 118.201 568.157 117.515 569.215 116.769C570.311 116.024 571.212 115.357 571.917 114.769C572.661 114.141 573.386 113.827 574.091 113.827C574.953 113.827 575.618 114.161 576.088 114.828L579.026 118.652C577.733 120.26 576.265 121.633 574.62 122.771C572.975 123.908 571.193 124.869 569.274 125.654C567.394 126.399 565.416 126.948 563.34 127.301C561.264 127.654 559.149 127.831 556.995 127.831C553.274 127.831 549.808 127.144 546.597 125.772C543.424 124.399 540.663 122.418 538.313 119.829C535.963 117.201 534.122 113.984 532.791 110.18C531.459 106.375 530.793 102.04 530.793 97.1764C530.793 92.7439 531.4 88.6449 532.614 84.8793C533.868 81.1137 535.669 77.8776 538.019 75.1711C540.408 72.4253 543.326 70.2875 546.773 68.7578C550.259 67.228 554.253 66.4631 558.758 66.4631C562.948 66.4631 566.63 67.1495 569.802 68.5224C573.014 69.8561 575.853 71.7585 578.321 74.2297L575.56 77.9953Z" fill="black"/>
<path d="M600.768 40.3391V91.3515H603.47C604.253 91.3515 604.9 91.2534 605.409 91.0573C605.957 90.8219 606.525 90.3708 607.112 89.704L625.912 69.5226C626.46 68.8558 627.028 68.3459 627.616 67.9929C628.242 67.6006 629.065 67.4045 630.083 67.4045H639.542L617.628 90.7631C616.571 92.0967 615.435 93.1362 614.221 93.8815C614.926 94.3522 615.553 94.9013 616.101 95.5289C616.689 96.1173 617.237 96.8037 617.746 97.5883L641.011 127.007H631.669C630.769 127.007 629.985 126.87 629.32 126.595C628.693 126.281 628.145 125.732 627.675 124.948L608.111 100.53C607.524 99.7064 606.936 99.1769 606.349 98.9415C605.8 98.6669 604.939 98.5297 603.764 98.5297H600.768V127.007H590.252V40.3391H600.768Z" fill="black"/>
<path d="M750.848 47.2593L716.538 132.339H702.262L667.953 47.2593H680.643C682.013 47.2593 683.13 47.5927 683.991 48.2595C684.853 48.9264 685.499 49.7893 685.93 50.8484L705.963 102.743C706.629 104.43 707.256 106.293 707.843 108.333C708.47 110.333 709.057 112.432 709.606 114.629C710.076 112.432 710.585 110.333 711.133 108.333C711.682 106.293 712.289 104.43 712.954 102.743L732.87 50.8484C733.184 49.9462 733.791 49.1225 734.692 48.3772C735.632 47.6319 736.767 47.2593 738.099 47.2593H750.848Z" fill="#0055B7"/>
<path d="M787.252 90.0343C790.151 90.0343 792.677 89.6813 794.831 88.9753C796.985 88.23 798.767 87.1905 800.177 85.8569C801.626 84.484 802.703 82.8365 803.408 80.9145C804.113 78.9532 804.466 76.7762 804.466 74.3835C804.466 72.1084 804.113 70.0491 803.408 68.2055C802.703 66.3619 801.646 64.7929 800.236 63.4985C798.826 62.2041 797.044 61.2234 794.89 60.5566C792.736 59.8506 790.19 59.4975 787.252 59.4975H775.444V90.0343H787.252ZM787.252 47.2593C792.932 47.2593 797.847 47.9261 801.998 49.2598C806.15 50.5934 809.577 52.4566 812.28 54.8494C814.982 57.2421 816.979 60.1055 818.272 63.4397C819.604 66.7738 820.269 70.4217 820.269 74.3835C820.269 78.5021 819.584 82.2874 818.213 85.7392C816.842 89.1518 814.786 92.0937 812.045 94.5648C809.303 97.036 805.856 98.9581 801.705 100.331C797.592 101.704 792.775 102.39 787.252 102.39H775.444V132.339H759.641V47.2593H787.252Z" fill="#0055B7"/>
<path d="M904.003 47.2593V132.339H895.896C894.642 132.339 893.585 132.143 892.723 131.75C891.901 131.319 891.098 130.613 890.314 129.632L845.959 72.9125C846.194 75.5014 846.312 77.8941 846.312 80.0908V132.339H832.388V47.2593H840.672C841.338 47.2593 841.905 47.2985 842.375 47.377C842.885 47.4162 843.315 47.5339 843.668 47.73C844.06 47.8869 844.432 48.1418 844.784 48.4949C845.137 48.8087 845.528 49.2402 845.959 49.7893L890.491 106.744C890.373 105.371 890.275 104.018 890.197 102.684C890.119 101.351 890.079 100.115 890.079 98.9777V47.2593H904.003Z" fill="#0055B7"/>
<rect x="2.16258" y="95.7519" width="150.547" height="58.8352" rx="9.18708" fill="#FF363B" stroke="white" stroke-width="3.67483"/>
<path d="M42.7705 129.671L38.8931 119.058C38.7021 118.587 38.5039 118.028 38.2982 117.381C38.0926 116.734 37.887 116.035 37.6814 115.285C37.4904 116.035 37.2922 116.741 37.0865 117.403C36.8809 118.051 36.6826 118.617 36.4917 119.102L32.6363 129.671H42.7705ZM53.2351 141.718H48.6527C48.1387 141.718 47.7201 141.593 47.397 141.343C47.0738 141.078 46.8315 140.755 46.6699 140.372L44.2906 133.863H31.0942L28.7148 140.372C28.5973 140.71 28.3697 141.019 28.0319 141.299C27.6941 141.578 27.2755 141.718 26.7761 141.718H22.1497L34.6852 109.813H40.7216L53.2351 141.718Z" fill="white"/>
<path d="M61.138 108.931V141.718H55.6964V108.931H61.138Z" fill="white"/>
<path d="M72.0012 135.849C72.6181 136.599 73.2864 137.129 74.0061 137.438C74.7404 137.746 75.5335 137.901 76.3854 137.901C77.2079 137.901 77.9496 137.746 78.6105 137.438C79.2714 137.129 79.8295 136.658 80.2848 136.025C80.7548 135.393 81.1147 134.599 81.3643 133.643C81.614 132.672 81.7389 131.532 81.7389 130.223C81.7389 128.899 81.6287 127.781 81.4084 126.869C81.2028 125.942 80.9017 125.192 80.5051 124.618C80.1086 124.045 79.6239 123.625 79.0511 123.361C78.493 123.096 77.8541 122.963 77.1344 122.963C76.0035 122.963 75.0415 123.206 74.2484 123.692C73.4553 124.162 72.7062 124.832 72.0012 125.699V135.849ZM71.7148 122.169C72.6401 121.125 73.6903 120.279 74.8653 119.632C76.0402 118.985 77.4208 118.661 79.007 118.661C80.2408 118.661 81.3643 118.918 82.3778 119.433C83.4059 119.948 84.2871 120.698 85.0215 121.684C85.7705 122.655 86.3433 123.861 86.7399 125.302C87.1511 126.729 87.3567 128.369 87.3567 130.223C87.3567 131.914 87.1291 133.481 86.6738 134.922C86.2185 136.364 85.5649 137.614 84.713 138.673C83.8759 139.732 82.8551 140.563 81.6507 141.166C80.4611 141.755 79.1245 142.049 77.6411 142.049C76.378 142.049 75.2985 141.858 74.4026 141.475C73.5067 141.078 72.7062 140.534 72.0012 139.843V149.11H66.5596V119.08H69.8863C70.5913 119.08 71.0539 119.411 71.2742 120.073L71.7148 122.169Z" fill="white"/>
<path d="M97.0441 121.507C97.9253 120.684 98.8947 120.014 99.9521 119.499C101.01 118.985 102.251 118.727 103.675 118.727C104.909 118.727 106.003 118.94 106.958 119.367C107.913 119.779 108.706 120.367 109.337 121.132C109.984 121.882 110.468 122.787 110.791 123.846C111.129 124.89 111.298 126.045 111.298 127.31V141.718H105.856V127.31C105.856 125.927 105.541 124.861 104.909 124.111C104.278 123.346 103.316 122.963 102.023 122.963C101.083 122.963 100.202 123.177 99.3793 123.603C98.5569 124.03 97.7785 124.611 97.0441 125.346V141.718H91.6025V108.931H97.0441V121.507Z" fill="white"/>
<path d="M128.414 132.054C126.842 132.127 125.521 132.267 124.448 132.473C123.376 132.664 122.517 132.914 121.871 133.223C121.225 133.532 120.762 133.893 120.483 134.304C120.204 134.716 120.064 135.165 120.064 135.65C120.064 136.606 120.343 137.29 120.901 137.702C121.474 138.114 122.216 138.32 123.126 138.32C124.243 138.32 125.205 138.122 126.013 137.724C126.835 137.313 127.635 136.695 128.414 135.871V132.054ZM115.944 122.235C118.544 119.852 121.672 118.661 125.33 118.661C126.651 118.661 127.834 118.882 128.877 119.323C129.919 119.749 130.801 120.353 131.52 121.132C132.24 121.897 132.783 122.816 133.151 123.89C133.532 124.964 133.723 126.141 133.723 127.42V141.718H131.256C130.742 141.718 130.345 141.644 130.066 141.497C129.787 141.336 129.567 141.019 129.405 140.549L128.921 138.916C128.348 139.431 127.79 139.887 127.246 140.284C126.703 140.666 126.137 140.99 125.55 141.255C124.962 141.519 124.331 141.718 123.655 141.85C122.994 141.998 122.26 142.071 121.452 142.071C120.497 142.071 119.616 141.946 118.808 141.696C118.001 141.431 117.303 141.041 116.716 140.527C116.128 140.012 115.673 139.372 115.35 138.607C115.027 137.842 114.865 136.952 114.865 135.937C114.865 135.364 114.96 134.797 115.151 134.238C115.342 133.665 115.651 133.12 116.077 132.606C116.517 132.091 117.083 131.605 117.773 131.149C118.463 130.693 119.308 130.296 120.307 129.958C121.32 129.62 122.495 129.347 123.831 129.141C125.168 128.921 126.695 128.788 128.414 128.744V127.42C128.414 125.905 128.091 124.787 127.445 124.067C126.798 123.331 125.866 122.963 124.647 122.963C123.765 122.963 123.031 123.066 122.444 123.272C121.871 123.478 121.364 123.714 120.923 123.978C120.483 124.228 120.079 124.456 119.712 124.662C119.359 124.868 118.963 124.971 118.522 124.971C118.14 124.971 117.817 124.876 117.553 124.684C117.288 124.479 117.075 124.243 116.914 123.978L115.944 122.235Z" fill="white"/>
</svg>
