<svg width="16" height="16" viewBox="0 0 16 16" fill="none" xmlns="http://www.w3.org/2000/svg">
<path fill-rule="evenodd" clip-rule="evenodd" d="M10.3337 0.666992H3.00033C2.26699 0.666992 1.66699 1.26699 1.66699 2.00033V10.667C1.66699 11.0337 1.96699 11.3337 2.33366 11.3337C2.70033 11.3337 3.00033 11.0337 3.00033 10.667V2.66699C3.00033 2.30033 3.30033 2.00033 3.66699 2.00033H10.3337C10.7003 2.00033 11.0003 1.70033 11.0003 1.33366C11.0003 0.966992 10.7003 0.666992 10.3337 0.666992ZM13.0003 3.33366H5.66699C4.93366 3.33366 4.33366 3.93366 4.33366 4.66699V14.0003C4.33366 14.7337 4.93366 15.3337 5.66699 15.3337H13.0003C13.7337 15.3337 14.3337 14.7337 14.3337 14.0003V4.66699C14.3337 3.93366 13.7337 3.33366 13.0003 3.33366ZM6.33366 14.0003H12.3337C12.7003 14.0003 13.0003 13.7003 13.0003 13.3337V5.33366C13.0003 4.96699 12.7003 4.66699 12.3337 4.66699H6.33366C5.96699 4.66699 5.66699 4.96699 5.66699 5.33366V13.3337C5.66699 13.7003 5.96699 14.0003 6.33366 14.0003Z" fill="#333333"/>
</svg>
