<svg width="497" height="290" viewBox="0 0 497 290" fill="none" xmlns="http://www.w3.org/2000/svg">
<path fill-rule="evenodd" clip-rule="evenodd" d="M118.673 230.579C109.231 226.86 108.381 213.829 117.259 208.915L146.5 192.729L146.542 219.99C146.544 221.346 147.268 222.598 148.444 223.276L256.717 284.95L118.673 230.579Z" fill="#E6E6E6"/>
<path fill-rule="evenodd" clip-rule="evenodd" d="M152.682 79.1436L288.138 1.66485C290.571 0.272864 293.73 -0.390103 296.463 0.237971C300.302 1.12151 303.902 2.32781 303.893 5.68378L304.099 131.396L292.181 138.427C296.081 140.322 414.984 198.108 415.18 198.25L415.467 203.1C415.467 205.192 414.358 207.121 412.545 208.171C392.305 219.876 273.742 288.311 273.742 288.311C269.841 290.563 265.033 290.563 261.133 288.311L148.444 223.275C147.268 222.598 146.544 221.345 146.542 219.989L146.346 90.0277C146.357 85.529 148.773 81.3792 152.682 79.1436Z" fill="#C6C6C6"/>
<path fill-rule="evenodd" clip-rule="evenodd" d="M150.338 219.566L304.218 131.898L304.535 6.46292C304.545 2.83903 300.624 0.563505 297.475 2.36423L155.573 83.5304C152.483 85.2975 150.575 88.5774 150.565 92.1315L150.338 219.566Z" fill="#666666"/>
<path fill-rule="evenodd" clip-rule="evenodd" d="M298.203 9.64551L157.326 90.3842L157.033 208.473L298.203 127.558V9.64551Z" fill="#03BCFC"/>
<path fill-rule="evenodd" clip-rule="evenodd" d="M150.425 219.553L304.225 130.991L412.991 193.759C416.134 195.573 416.133 200.101 412.991 201.913L271.398 283.615C268.315 285.394 264.516 285.394 261.432 283.615L150.425 219.553Z" fill="#F4F4F4"/>
<path fill-rule="evenodd" clip-rule="evenodd" d="M192.992 222.281C189.929 224.036 188.398 224.915 185.335 226.672C182.237 224.922 180.69 224.049 177.593 222.302C180.656 220.546 182.188 219.667 185.25 217.91C188.347 219.66 189.896 220.533 192.992 222.281Z" fill="#C6C6C6"/>
<path fill-rule="evenodd" clip-rule="evenodd" d="M204.295 215.798C201.232 217.554 199.701 218.433 196.638 220.188C193.541 218.44 191.993 217.566 188.896 215.819C191.959 214.062 193.49 213.184 196.553 211.428C199.651 213.176 201.198 214.05 204.295 215.798Z" fill="#C6C6C6"/>
<path fill-rule="evenodd" clip-rule="evenodd" d="M215.599 209.317C212.536 211.073 211.005 211.952 207.941 213.708C204.844 211.96 203.295 211.087 200.199 209.339C203.263 207.581 204.794 206.704 207.857 204.948C210.953 206.695 212.502 207.57 215.599 209.317Z" fill="#C6C6C6"/>
<path fill-rule="evenodd" clip-rule="evenodd" d="M226.901 202.836C223.837 204.592 222.306 205.471 219.243 207.226C216.147 205.479 214.598 204.605 211.502 202.856C214.564 201.1 216.096 200.222 219.16 198.466C222.256 200.213 223.805 201.087 226.901 202.836Z" fill="#C6C6C6"/>
<path fill-rule="evenodd" clip-rule="evenodd" d="M238.206 196.355C235.143 198.113 233.611 198.991 230.548 200.747C227.45 199 225.903 198.125 222.806 196.378C225.869 194.621 227.4 193.743 230.463 191.986C233.561 193.735 235.11 194.608 238.206 196.355Z" fill="#C6C6C6"/>
<path fill-rule="evenodd" clip-rule="evenodd" d="M249.511 189.875C246.447 191.632 244.915 192.511 241.853 194.267C238.756 192.518 237.207 191.645 234.111 189.897C237.174 188.142 238.706 187.263 241.769 185.506C244.866 187.254 246.414 188.128 249.511 189.875Z" fill="#C6C6C6"/>
<path fill-rule="evenodd" clip-rule="evenodd" d="M260.816 183.397C257.752 185.153 256.22 186.031 253.157 187.788C250.061 186.04 248.512 185.165 245.416 183.418C248.478 181.662 250.01 180.782 253.074 179.026C256.17 180.775 257.718 181.648 260.816 183.397Z" fill="#C6C6C6"/>
<path fill-rule="evenodd" clip-rule="evenodd" d="M272.116 176.914C269.052 178.67 267.521 179.549 264.458 181.305C261.362 179.557 259.813 178.684 256.716 176.935C259.779 175.178 261.311 174.301 264.375 172.544C267.471 174.292 269.02 175.167 272.116 176.914Z" fill="#C6C6C6"/>
<path fill-rule="evenodd" clip-rule="evenodd" d="M283.421 170.435C280.358 172.192 278.826 173.069 275.763 174.825C272.665 173.078 271.118 172.204 268.021 170.456C271.084 168.7 272.615 167.821 275.679 166.065C278.776 167.813 280.325 168.686 283.421 170.435Z" fill="#C6C6C6"/>
<path fill-rule="evenodd" clip-rule="evenodd" d="M294.724 163.952C291.661 165.708 290.13 166.587 287.067 168.343C283.97 166.596 282.422 165.721 279.324 163.972C282.388 162.216 283.919 161.338 286.982 159.582C290.08 161.33 291.627 162.204 294.724 163.952Z" fill="#C6C6C6"/>
<path fill-rule="evenodd" clip-rule="evenodd" d="M306.027 157.474C302.964 159.229 301.434 160.108 298.37 161.865C295.274 160.115 293.725 159.242 290.629 157.495C293.693 155.738 295.224 154.86 298.287 153.104C301.383 154.852 302.931 155.726 306.027 157.474Z" fill="#C6C6C6"/>
<path fill-rule="evenodd" clip-rule="evenodd" d="M317.33 150.99C314.268 152.746 312.735 153.624 309.672 155.381C306.576 153.632 305.028 152.759 301.93 151.01C304.993 149.255 306.526 148.377 309.589 146.62C312.684 148.369 314.234 149.242 317.33 150.99Z" fill="#C6C6C6"/>
<path fill-rule="evenodd" clip-rule="evenodd" d="M203.86 228.413C200.798 230.169 199.266 231.048 196.202 232.805C193.106 231.055 191.557 230.182 188.461 228.435C191.523 226.679 193.055 225.799 196.117 224.043C199.214 225.791 200.764 226.666 203.86 228.413Z" fill="#C6C6C6"/>
<path fill-rule="evenodd" clip-rule="evenodd" d="M215.163 221.935C212.1 223.691 210.569 224.568 207.505 226.325C204.409 224.577 202.86 223.703 199.763 221.955C202.826 220.198 204.357 219.32 207.421 217.564C210.518 219.312 212.067 220.186 215.163 221.935Z" fill="#C6C6C6"/>
<path fill-rule="evenodd" clip-rule="evenodd" d="M226.465 215.453C223.401 217.209 221.87 218.088 218.807 219.844C215.711 218.097 214.161 217.223 211.064 215.473C214.128 213.717 215.659 212.839 218.722 211.083C221.82 212.831 223.368 213.705 226.465 215.453Z" fill="#C6C6C6"/>
<path fill-rule="evenodd" clip-rule="evenodd" d="M237.77 208.974C234.706 210.73 233.175 211.608 230.112 213.364C227.014 211.616 225.465 210.741 222.369 208.994C225.432 207.238 226.963 206.359 230.027 204.604C233.123 206.351 234.672 207.224 237.77 208.974Z" fill="#C6C6C6"/>
<path fill-rule="evenodd" clip-rule="evenodd" d="M249.075 202.488C246.011 204.245 244.479 205.124 241.415 206.88C238.319 205.131 236.77 204.258 233.673 202.509C236.736 200.754 238.268 199.875 241.332 198.119C244.428 199.866 245.977 200.741 249.075 202.488Z" fill="#C6C6C6"/>
<path fill-rule="evenodd" clip-rule="evenodd" d="M260.377 196.009C257.313 197.766 255.782 198.643 252.719 200.401C249.622 198.652 248.073 197.779 244.976 196.031C248.04 194.274 249.572 193.397 252.634 191.639C255.732 193.388 257.28 194.262 260.377 196.009Z" fill="#C6C6C6"/>
<path fill-rule="evenodd" clip-rule="evenodd" d="M271.677 189.528C268.614 191.283 267.083 192.162 264.02 193.918C260.922 192.169 259.373 191.296 256.277 189.549C259.34 187.79 260.872 186.913 263.935 185.157C267.032 186.904 268.58 187.779 271.677 189.528Z" fill="#C6C6C6"/>
<path fill-rule="evenodd" clip-rule="evenodd" d="M282.985 183.045C279.921 184.801 278.389 185.68 275.327 187.435C272.229 185.688 270.68 184.813 267.584 183.065C270.646 181.309 272.179 180.431 275.242 178.675C278.338 180.422 279.887 181.297 282.985 183.045Z" fill="#C6C6C6"/>
<path fill-rule="evenodd" clip-rule="evenodd" d="M294.288 176.566C291.224 178.323 289.692 179.2 286.628 180.956C283.532 179.209 281.983 178.335 278.886 176.586C281.949 174.83 283.48 173.952 286.544 172.195C289.642 173.944 291.19 174.817 294.288 176.566Z" fill="#C6C6C6"/>
<path fill-rule="evenodd" clip-rule="evenodd" d="M305.59 170.082C302.527 171.839 300.995 172.718 297.933 174.474C294.836 172.725 293.287 171.85 290.189 170.103C293.253 168.347 294.784 167.469 297.847 165.713C300.945 167.46 302.493 168.335 305.59 170.082Z" fill="#C6C6C6"/>
<path fill-rule="evenodd" clip-rule="evenodd" d="M316.894 163.606C313.832 165.362 312.3 166.24 309.237 167.996C306.14 166.248 304.592 165.374 301.496 163.626C304.558 161.87 306.089 160.992 309.151 159.235C312.249 160.984 313.798 161.857 316.894 163.606Z" fill="#C6C6C6"/>
<path fill-rule="evenodd" clip-rule="evenodd" d="M328.196 157.125C323.061 160.069 320.492 161.542 315.358 164.485C312.26 162.738 310.711 161.864 307.615 160.116C312.751 157.171 315.318 155.7 320.454 152.755C323.55 154.503 325.099 155.377 328.196 157.125Z" fill="#C6C6C6"/>
<path fill-rule="evenodd" clip-rule="evenodd" d="M219.787 231.647C214.7 234.564 212.157 236.022 207.07 238.938C203.973 237.19 202.424 236.316 199.328 234.569C204.414 231.652 206.957 230.194 212.044 227.276C215.141 229.025 216.69 229.898 219.787 231.647Z" fill="#C6C6C6"/>
<path fill-rule="evenodd" clip-rule="evenodd" d="M226.028 228.066C222.966 229.822 221.434 230.7 218.372 232.456C215.274 230.708 213.725 229.834 210.629 228.086C213.691 226.328 215.223 225.451 218.285 223.695C221.383 225.442 222.932 226.316 226.028 228.066Z" fill="#C6C6C6"/>
<path fill-rule="evenodd" clip-rule="evenodd" d="M237.332 221.584C234.268 223.341 232.737 224.219 229.674 225.975C226.577 224.227 225.029 223.354 221.931 221.604C224.994 219.848 226.527 218.971 229.589 217.214C232.686 218.962 234.235 219.836 237.332 221.584Z" fill="#C6C6C6"/>
<path fill-rule="evenodd" clip-rule="evenodd" d="M248.635 215.108C245.571 216.865 244.04 217.744 240.976 219.5C237.879 217.752 236.33 216.877 233.234 215.13C236.297 213.374 237.828 212.495 240.892 210.739C243.989 212.486 245.537 213.36 248.635 215.108Z" fill="#C6C6C6"/>
<path fill-rule="evenodd" clip-rule="evenodd" d="M259.94 208.624C256.876 210.381 255.344 211.259 252.28 213.016C249.184 211.267 247.635 210.394 244.539 208.645C247.601 206.89 249.133 206.011 252.197 204.254C255.293 206.002 256.842 206.877 259.94 208.624Z" fill="#C6C6C6"/>
<path fill-rule="evenodd" clip-rule="evenodd" d="M271.242 202.144C268.178 203.901 266.646 204.778 263.584 206.535C260.486 204.787 258.937 203.913 255.839 202.165C258.903 200.408 260.435 199.531 263.499 197.773C266.595 199.523 268.144 200.397 271.242 202.144Z" fill="#C6C6C6"/>
<path fill-rule="evenodd" clip-rule="evenodd" d="M282.546 195.662C279.483 197.418 277.952 198.297 274.888 200.053C271.791 198.305 270.243 197.431 267.146 195.682C270.209 193.926 271.74 193.048 274.804 191.292C277.901 193.039 279.45 193.914 282.546 195.662Z" fill="#C6C6C6"/>
<path fill-rule="evenodd" clip-rule="evenodd" d="M293.85 189.182C290.786 190.938 289.255 191.816 286.192 193.572C283.094 191.825 281.545 190.951 278.449 189.202C281.512 187.446 283.043 186.567 286.107 184.812C289.203 186.559 290.752 187.433 293.85 189.182Z" fill="#C6C6C6"/>
<path fill-rule="evenodd" clip-rule="evenodd" d="M305.153 182.698C302.091 184.456 300.559 185.333 297.495 187.09C294.399 185.342 292.85 184.467 289.754 182.718C292.816 180.963 294.348 180.085 297.412 178.328C300.508 180.077 302.057 180.95 305.153 182.698Z" fill="#C6C6C6"/>
<path fill-rule="evenodd" clip-rule="evenodd" d="M316.458 176.22C313.395 177.977 311.863 178.856 308.8 180.611C305.704 178.863 304.155 177.988 301.058 176.241C304.121 174.485 305.654 173.607 308.716 171.85C311.813 173.598 313.36 174.473 316.458 176.22Z" fill="#C6C6C6"/>
<path fill-rule="evenodd" clip-rule="evenodd" d="M327.76 169.739C324.697 171.494 323.165 172.372 320.103 174.13C317.005 172.38 315.457 171.507 312.361 169.758C315.424 168.003 316.954 167.124 320.017 165.368C323.114 167.117 324.663 167.99 327.76 169.739Z" fill="#C6C6C6"/>
<path fill-rule="evenodd" clip-rule="evenodd" d="M339.064 163.256C336.001 165.012 334.469 165.889 331.407 167.645C328.31 165.898 326.761 165.024 323.664 163.276C326.726 161.519 328.259 160.642 331.322 158.886C334.418 160.633 335.967 161.508 339.064 163.256Z" fill="#C6C6C6"/>
<path fill-rule="evenodd" clip-rule="evenodd" d="M225.593 240.683C222.53 242.439 220.999 243.317 217.935 245.073C214.838 243.325 213.289 242.451 210.193 240.703C213.256 238.947 214.787 238.068 217.85 236.312C220.946 238.06 222.495 238.934 225.593 240.683Z" fill="#C6C6C6"/>
<path fill-rule="evenodd" clip-rule="evenodd" d="M236.894 234.2C233.831 235.956 232.3 236.835 229.237 238.591C226.139 236.842 224.59 235.969 221.494 234.22C224.557 232.465 226.088 231.586 229.151 229.83C232.248 231.577 233.796 232.452 236.894 234.2Z" fill="#C6C6C6"/>
<path fill-rule="evenodd" clip-rule="evenodd" d="M248.198 227.721C245.136 229.478 243.604 230.355 240.541 232.111C237.444 230.364 235.896 229.489 232.798 227.741C235.862 225.985 237.394 225.108 240.457 223.351C243.553 225.099 245.102 225.973 248.198 227.721Z" fill="#C6C6C6"/>
<path fill-rule="evenodd" clip-rule="evenodd" d="M259.504 221.239C256.44 222.995 254.909 223.875 251.845 225.631C248.748 223.883 247.2 223.008 244.103 221.261C247.166 219.505 248.697 218.626 251.761 216.869C254.858 218.618 256.407 219.492 259.504 221.239Z" fill="#C6C6C6"/>
<path fill-rule="evenodd" clip-rule="evenodd" d="M270.806 214.757C267.743 216.514 266.212 217.391 263.148 219.149C260.051 217.4 258.502 216.527 255.406 214.778C258.469 213.022 260.001 212.144 263.064 210.387C266.16 212.136 267.709 213.01 270.806 214.757Z" fill="#C6C6C6"/>
<path fill-rule="evenodd" clip-rule="evenodd" d="M282.109 208.275C279.046 210.032 277.514 210.91 274.45 212.667C271.354 210.919 269.805 210.045 266.709 208.298C269.771 206.539 271.304 205.662 274.367 203.906C277.463 205.653 279.012 206.528 282.109 208.275Z" fill="#C6C6C6"/>
<path fill-rule="evenodd" clip-rule="evenodd" d="M293.413 201.793C290.35 203.549 288.819 204.428 285.755 206.183C282.659 204.436 281.11 203.562 278.013 201.813C281.076 200.057 282.607 199.179 285.671 197.423C288.768 199.17 290.317 200.045 293.413 201.793Z" fill="#C6C6C6"/>
<path fill-rule="evenodd" clip-rule="evenodd" d="M304.719 195.313C301.656 197.069 300.124 197.947 297.06 199.703C293.963 197.956 292.414 197.081 289.318 195.333C292.381 193.577 293.912 192.698 296.976 190.942C300.073 192.691 301.621 193.564 304.719 195.313Z" fill="#C6C6C6"/>
<path fill-rule="evenodd" clip-rule="evenodd" d="M316.021 188.835C312.958 190.592 311.426 191.47 308.364 193.227C305.266 191.477 303.717 190.604 300.621 188.856C303.683 187.099 305.215 186.222 308.279 184.465C311.377 186.213 312.924 187.087 316.021 188.835Z" fill="#C6C6C6"/>
<path fill-rule="evenodd" clip-rule="evenodd" d="M327.323 182.353C324.261 184.109 322.728 184.987 319.665 186.744C316.569 184.996 315.02 184.121 311.923 182.374C314.986 180.618 316.518 179.74 319.582 177.982C322.678 179.732 324.226 180.606 327.323 182.353Z" fill="#C6C6C6"/>
<path fill-rule="evenodd" clip-rule="evenodd" d="M343.51 173.071C338.495 175.948 335.986 177.385 330.97 180.261C327.872 178.513 326.325 177.639 323.228 175.892C328.243 173.014 330.752 171.576 335.769 168.7C338.865 170.449 340.413 171.323 343.51 173.071Z" fill="#C6C6C6"/>
<path fill-rule="evenodd" clip-rule="evenodd" d="M349.929 169.393C346.866 171.149 345.336 172.026 342.271 173.782C339.175 172.035 337.627 171.161 334.529 169.412C337.592 167.656 339.124 166.778 342.187 165.022C345.285 166.77 346.832 167.643 349.929 169.393Z" fill="#C6C6C6"/>
<path fill-rule="evenodd" clip-rule="evenodd" d="M237.962 247.66C234.899 249.417 233.368 250.295 230.305 252.05C227.209 250.302 225.66 249.428 222.562 247.681C225.626 245.925 227.158 245.047 230.22 243.291C233.317 245.038 234.866 245.912 237.962 247.66Z" fill="#C6C6C6"/>
<path fill-rule="evenodd" clip-rule="evenodd" d="M249.264 241.18C246.201 242.936 244.669 243.813 241.607 245.57C238.509 243.822 236.961 242.948 233.865 241.201C236.928 239.444 238.459 238.567 241.522 236.81C244.618 238.558 246.167 239.432 249.264 241.18Z" fill="#C6C6C6"/>
<path fill-rule="evenodd" clip-rule="evenodd" d="M260.568 234.703C257.505 236.459 255.972 237.338 252.909 239.094C249.813 237.347 248.264 236.473 245.168 234.725C248.23 232.967 249.762 232.09 252.824 230.333C255.922 232.081 257.471 232.956 260.568 234.703Z" fill="#C6C6C6"/>
<path fill-rule="evenodd" clip-rule="evenodd" d="M328.387 195.814C306.995 208.08 285.603 220.345 264.211 232.611C261.115 230.863 259.566 229.989 256.468 228.241C277.862 215.976 299.253 203.71 320.645 191.443C323.743 193.192 325.292 194.067 328.387 195.814Z" fill="#C6C6C6"/>
<path fill-rule="evenodd" clip-rule="evenodd" d="M339.693 189.333C336.63 191.089 335.097 191.968 332.034 193.724C328.938 191.975 327.39 191.102 324.293 189.353C327.355 187.597 328.888 186.719 331.951 184.963C335.047 186.71 336.596 187.585 339.693 189.333Z" fill="#C6C6C6"/>
<path fill-rule="evenodd" clip-rule="evenodd" d="M350.997 182.853C347.934 184.61 346.402 185.487 343.339 187.243C340.241 185.496 338.694 184.621 335.597 182.874C338.66 181.117 340.191 180.239 343.255 178.483C346.352 180.231 347.899 181.104 350.997 182.853Z" fill="#C6C6C6"/>
<path fill-rule="evenodd" clip-rule="evenodd" d="M362.299 176.369C359.236 178.126 357.705 179.005 354.642 180.76C351.545 179.012 349.996 178.138 346.9 176.39C349.964 174.634 351.494 173.757 354.557 172.001C357.655 173.748 359.202 174.622 362.299 176.369Z" fill="#C6C6C6"/>
<path fill-rule="evenodd" clip-rule="evenodd" d="M275.949 235.756L328.721 205.334L358.877 223.883L306.125 254.316L275.949 235.756Z" fill="#C6C6C6"/>
<path fill-rule="evenodd" clip-rule="evenodd" d="M150.338 219.562L150.565 92.1281C150.575 88.574 152.483 85.2941 155.573 83.527L297.475 2.36083C297.51 2.34089 297.545 2.32095 297.58 2.30226C298.301 1.91345 299.059 1.74023 299.799 1.74023C299.925 1.74023 300.049 1.74522 300.174 1.75519C298.723 3.98585 296.249 7.71567 292.952 12.653L157.328 90.3822L157.035 208.471L163.02 205.041C159.899 209.648 157.187 213.651 154.967 216.926L150.338 219.562Z" fill="#999999"/>
<path fill-rule="evenodd" clip-rule="evenodd" d="M157.267 89.7258L292.95 12.6533L163.381 204.25L157.267 208.113V89.7258Z" fill="#4ECDF9"/>
<path fill-rule="evenodd" clip-rule="evenodd" d="M40.4685 288.874C18.1186 288.874 0 281.451 0 272.295C0 263.141 18.1186 255.718 40.4685 255.718C52.26 255.718 62.8731 257.784 70.2693 261.081L53.6132 270.238L76.1977 280.088C69.3894 285.315 55.9435 288.874 40.4685 288.874Z" fill="#E6E6E6"/>
<path fill-rule="evenodd" clip-rule="evenodd" d="M76.1978 280.088L53.6133 270.238L70.2694 261.081C76.8924 264.032 80.9371 267.971 80.9371 272.296C80.9371 275.112 79.2227 277.765 76.1978 280.088Z" fill="#E6E6E6"/>
<path fill-rule="evenodd" clip-rule="evenodd" d="M62.1397 218.181L29.1367 229.249V270.716C29.1367 279.111 40.3243 285.914 54.1249 285.914C67.9241 285.914 79.1118 279.111 79.1118 270.716V229.249L62.1397 218.181Z" fill="#F4F4F4"/>
<path fill-rule="evenodd" clip-rule="evenodd" d="M79.1118 229.248C79.1118 237.642 67.9255 244.447 54.1249 244.447C40.3243 244.447 29.1367 237.642 29.1367 229.248C29.1367 220.854 40.3243 214.05 54.1249 214.05C67.9255 214.05 79.1118 220.854 79.1118 229.248Z" fill="#C6C6C6"/>
<path fill-rule="evenodd" clip-rule="evenodd" d="M32.8533 237.223C37.254 241.558 45.1341 244.448 54.1261 244.448C63.118 244.448 70.9968 241.558 75.3988 237.223C75.7028 236.341 75.8641 235.43 75.8641 234.494C75.8641 227.191 66.1322 221.271 54.1261 221.271C42.1199 221.271 32.3867 227.191 32.3867 234.494C32.3867 235.43 32.5494 236.341 32.8533 237.223Z" fill="#634646"/>
<path fill-rule="evenodd" clip-rule="evenodd" d="M54.1249 214.05C40.3243 214.05 29.1367 220.854 29.1367 229.248C29.1367 237.642 40.3243 244.447 54.1249 244.447C67.9255 244.447 79.1118 237.642 79.1118 229.248C79.1118 220.854 67.9255 214.05 54.1249 214.05ZM54.1245 215.799C66.7199 215.799 77.361 221.958 77.361 229.25C77.361 236.54 66.7199 242.7 54.1245 242.7C41.5291 242.7 30.8867 236.54 30.8867 229.25C30.8867 221.958 41.5291 215.799 54.1245 215.799Z" fill="#999999"/>
<path fill-rule="evenodd" clip-rule="evenodd" d="M75.3618 159.224C73.2715 163.663 73.2422 168.754 73.2542 173.658C73.2662 179.169 73.2795 184.68 73.2915 190.191C73.3062 196.466 73.3075 202.836 71.5971 208.875C69.8853 214.913 66.2046 220.681 60.5748 223.472C57.7859 224.854 54.2811 225.391 51.6441 223.739C50.475 223.005 49.5818 221.908 48.8392 220.748C42.4949 210.819 48.3633 197.477 52.9239 187.945C58.2071 176.905 65.8833 166.992 75.3618 159.224Z" fill="#0C7967"/>
<path fill-rule="evenodd" clip-rule="evenodd" d="M27.9245 204.541C26.358 183.955 27.4152 162.982 22.3586 142.963C36.1352 159.695 42.8489 182.045 40.5719 203.585C45.1378 189.357 49.7505 174.834 49.6678 159.894C49.6265 152.752 54.0271 135.896 54.0271 135.896C54.0271 135.896 56.6174 152.023 58.9997 159.862C60.6235 165.212 60.9541 170.854 61.2727 176.436C61.738 184.579 62.2046 192.722 62.6698 200.864C69.4528 180.392 87.618 152.173 87.618 152.173C87.618 152.173 80.931 205.972 77.3862 218.279C73.3629 232.242 60.2755 241.736 45.2831 238.435C31.6452 235.43 28.7857 215.852 27.9245 204.541Z" fill="#0D9F86"/>
<path fill-rule="evenodd" clip-rule="evenodd" d="M38.5696 224.829C35.7167 217.004 38.3669 208.405 40.148 200.269C42.2703 190.57 43.1116 180.423 40.9479 170.735C48.1215 185.859 54.4365 201.391 59.8503 217.23C61.2501 221.326 62.5966 225.778 61.2661 229.897C60.0116 233.778 52.9834 240.637 48.3214 239.49C44.6553 238.586 39.8201 228.262 38.5696 224.829Z" fill="#1DBDA6"/>
<path d="M266.607 241.163C266.376 241.034 266.127 240.937 265.888 240.823C264.533 240.176 264.296 238.662 265.558 237.933L335.203 197.66C336.196 197.086 337.475 196.891 338.719 197.103C339.241 197.191 339.726 197.42 340.189 197.678L351.264 203.857C351.495 203.986 351.744 204.082 351.983 204.197C353.338 204.844 353.575 206.357 352.313 207.087L282.668 247.359C281.675 247.933 280.396 248.128 279.152 247.917C278.63 247.828 278.145 247.6 277.682 247.342L266.607 241.163Z" fill="#333333" fill-opacity="0.2"/>
<path d="M303.107 214.994C301.798 217.033 299.968 218.205 298.535 217.945C288.34 216.091 249.003 207.401 249.001 183.658C248.999 161.684 249 136.82 249.001 127.983C249.001 125.982 250.099 123.579 251.735 121.981L293.299 81.3893C294.155 80.5536 295.085 80.016 295.94 79.8621L339.389 72.0456C339.949 71.9449 340.459 72.0115 340.885 72.2406L356.621 80.7084C358.149 81.5306 358.285 84.2352 356.973 86.9252C351.866 97.3954 340.238 122.19 340.238 130.9C340.238 155.407 311.366 202.13 303.107 214.994Z" fill="#0055B7"/>
<path d="M314.142 217.281C313.026 218.59 311.744 219.318 310.639 219.269C302.287 218.904 266.765 215.934 266.763 191.863C266.761 169.888 266.762 145.025 266.762 136.188C266.762 134.186 267.861 131.783 269.497 130.185L311.061 89.5938C311.916 88.7581 312.846 88.2205 313.702 88.0666L355.266 80.5892C356.902 80.2949 358 81.4249 358 83.4263C358 92.0732 358 116.171 358 139.104C358 164.322 322.527 207.441 314.142 217.281Z" fill="#0075FF"/>
<path d="M294.316 173.087L294.898 174.819C295.781 177.448 298.693 177.436 301.402 174.792C303.813 172.438 305.251 168.791 304.914 166.164C306.127 166.233 307.61 165.571 309.037 164.178C310.787 162.469 312.024 160.079 312.442 157.892L318.523 158.284C319.113 158.322 319.477 158.834 319.477 159.624L319.477 160.88C319.477 161.399 319.838 161.604 320.284 161.339C320.733 161.071 321.096 160.426 321.09 159.906L321.068 158.042C321.056 157.074 320.609 156.443 319.888 156.378L315.944 156.022C313.622 155.813 312.179 153.786 312.135 150.673L312.094 147.846C312.093 147.743 312.18 147.616 312.265 147.599L321.368 145.78C321.417 145.77 321.461 145.76 321.51 145.748C322.347 145.543 330.603 143.68 330.891 149.776C331.256 157.516 331.31 166 327.333 174.854C324.489 181.184 320.288 186.931 314.136 190.982C303.793 197.794 294.658 196.585 294.536 182.746C294.498 178.383 294.414 175.285 294.316 173.087Z" fill="white"/>
<path d="M300.266 151.659C299.648 149.818 300.684 146.826 302.58 144.975C304.476 143.124 306.514 143.115 307.133 144.956L310.864 156.064C311.482 157.905 310.446 160.898 308.55 162.748C306.654 164.599 304.616 164.608 303.997 162.767L300.266 151.659Z" fill="white"/>
<path d="M292.982 163.318C292.364 161.477 293.4 158.485 295.296 156.634C297.192 154.783 299.23 154.775 299.848 156.615L303.229 166.679C303.847 168.519 302.811 171.512 300.915 173.363C299.019 175.214 296.981 175.222 296.363 173.382L292.982 163.318Z" fill="white"/>
<path d="M303.251 127.592C302.544 125.489 303.728 122.068 305.895 119.953C308.062 117.838 310.391 117.828 311.098 119.932L318.871 143.072C318.994 143.437 319.535 143.08 319.617 142.58L324.362 113.604C324.834 110.725 327.024 107.758 329.254 106.978C331.484 106.198 332.909 107.9 332.438 110.779L327.09 143.434C324.728 143.152 322.326 143.7 321.862 143.814C321.824 143.823 321.799 143.829 321.772 143.834L312.668 145.653C311.57 145.873 310.433 147.516 310.452 148.856L310.455 149.039L303.251 127.592Z" fill="white"/>
<path fill-rule="evenodd" clip-rule="evenodd" d="M454.907 156.145C474.786 156.145 490.901 149.589 490.901 141.503C490.901 133.416 474.786 126.86 454.907 126.86C435.027 126.86 418.912 133.416 418.912 141.503C418.912 149.589 435.027 156.145 454.907 156.145Z" fill="#E6E6E6"/>
<path fill-rule="evenodd" clip-rule="evenodd" d="M474.132 83.0781L441.084 94.161V135.684C441.084 144.09 452.286 150.904 466.105 150.904C479.925 150.904 491.127 144.09 491.127 135.684V94.161L474.132 83.0781Z" fill="#F4F4F4"/>
<path fill-rule="evenodd" clip-rule="evenodd" d="M491.126 94.1604C491.126 102.566 479.924 109.38 466.105 109.38C452.285 109.38 441.083 102.566 441.083 94.1604C441.083 85.7544 452.285 78.9404 466.105 78.9404C479.924 78.9404 491.126 85.7544 491.126 94.1604Z" fill="#C6C6C6"/>
<path fill-rule="evenodd" clip-rule="evenodd" d="M444.804 102.144C449.21 106.485 457.101 109.38 466.105 109.38C475.109 109.38 482.998 106.485 487.407 102.144C487.711 101.263 487.872 100.349 487.872 99.4115C487.872 92.0983 478.127 86.1709 466.105 86.1709C454.082 86.1709 444.336 92.0983 444.336 99.4115C444.336 100.349 444.499 101.263 444.804 102.144Z" fill="#AC854B"/>
<path fill-rule="evenodd" clip-rule="evenodd" d="M466.105 78.9404C452.285 78.9404 441.083 85.7544 441.083 94.1604C441.083 102.566 452.285 109.38 466.105 109.38C479.924 109.38 491.126 102.566 491.126 94.1604C491.126 85.7544 479.924 78.9404 466.105 78.9404ZM466.102 80.6922C478.714 80.6922 489.37 86.8606 489.37 94.1617C489.37 101.463 478.714 107.631 466.102 107.631C453.489 107.631 442.833 101.463 442.833 94.1617C442.833 86.8606 453.489 80.6922 466.102 80.6922Z" fill="#999999"/>
<path fill-rule="evenodd" clip-rule="evenodd" d="M487.45 110.941L486.536 110.414V110.43L486.522 110.422V110.439L486.507 110.43V110.447L486.492 110.438V110.454L486.479 110.447V110.463L486.464 110.454V110.471L486.45 110.462V110.479L486.435 110.471V110.487L486.422 110.478V110.495L486.407 110.486V110.503L486.392 110.495V110.511L486.378 110.503V110.519L486.364 110.511V110.527L486.35 110.519V110.535L486.335 110.527V110.543L486.32 110.535V110.551L486.307 110.543V110.559L486.292 110.551V110.567L486.276 110.559V110.575L486.262 110.567V110.583L486.248 110.575V110.591L486.234 110.583V110.599L486.219 110.591V110.608L486.204 110.599V110.615L486.191 110.607V110.623L486.176 110.615V110.632L486.162 110.623V110.64L486.147 110.631V110.647L486.134 110.64V110.656L486.119 110.647V110.664L486.104 110.655V110.671L486.091 110.664V110.68L486.076 110.671V110.688L486.062 110.68V110.696L486.047 110.688V110.704L486.034 110.696V110.712L486.019 110.704V110.72L486.004 110.712V110.728L485.99 110.72V110.736L485.976 110.728V110.744L485.962 110.736V110.752L485.947 110.744V110.76L485.932 110.752V110.768L485.918 110.76V110.777L485.903 110.768V110.784L485.888 110.776V110.792L485.874 110.784V110.801L485.86 110.792V110.808L485.846 110.8V110.816L485.831 110.808V110.825L485.816 110.816V110.833L485.803 110.824V110.841L485.788 110.833V110.849L485.774 110.84V110.857L485.759 110.849V110.865L485.746 110.857V110.873L485.731 110.864V110.881L485.716 110.873V110.889L485.703 110.881V110.897L485.688 110.889V110.905L485.674 110.897V110.913L485.659 110.905V110.921L485.646 110.913V110.929L485.631 110.921V110.937L485.616 110.929V110.945L485.602 110.937V110.953L485.588 110.945V110.961L485.574 110.953V110.97L485.558 110.961V110.977L485.543 110.969V110.985L485.53 110.977V110.994L485.515 110.985V111.002L485.5 110.993V111.009L485.486 111.002V111.018L485.472 111.009V111.026L485.458 111.017V111.034L485.443 111.026V111.042L485.428 111.033V111.05L485.415 111.042V111.058L485.4 111.05V111.066L485.386 111.058V111.074L485.371 111.066V111.082L485.358 111.074V111.09L485.343 111.082V111.098L485.329 111.09V111.106L485.314 111.098V111.114L485.301 111.106V111.122L485.286 111.114V111.13L485.271 111.122V111.14L485.258 111.13V111.146L485.243 111.138V111.154L485.229 111.146V111.163L485.214 111.154V111.17L485.201 111.162V111.178L485.185 111.17V111.187L485.17 111.178V111.195L485.155 111.187V111.203L485.142 111.195V111.211L485.127 111.202V111.219L485.113 111.211V111.227L485.098 111.219V111.235L485.085 111.226V111.243L485.07 111.235V111.251L485.055 111.243V111.259L485.041 111.251V111.267L485.027 111.259V111.275L485.013 111.267V111.283L484.998 111.275V111.291L484.983 111.283V111.299L484.97 111.291V111.307L484.955 111.299V111.315L484.941 111.307V111.323L484.926 111.315V111.333L484.913 111.323V111.339L484.898 111.331V111.347L484.883 111.339V111.356L484.87 111.347V111.363L484.855 111.355V111.372L484.841 111.363V111.38L484.825 111.371V111.388L484.811 111.379V111.396L484.797 111.388V111.404L484.782 111.395V111.412L484.767 111.404V111.42L484.754 111.412V111.428L484.739 111.419V111.436L484.725 111.428V111.444L484.71 111.436V111.452L484.697 111.444V111.46L484.682 111.452V111.468L484.667 111.46V111.476L484.653 111.468V111.484L484.639 111.476V111.492L484.625 111.484V111.502L484.61 111.492V111.508L484.595 111.5V111.516L484.582 111.508V111.526L484.567 111.516V111.532L484.553 111.524V111.54L484.538 111.532V111.55L484.525 111.54V111.557L484.51 111.55V111.565L484.495 111.557V111.573L484.481 111.564V111.581L484.466 111.573V111.589L484.451 111.581V111.597L484.437 111.588V111.605L484.423 111.597V111.613L484.409 111.605V111.621L484.394 111.613V111.629L484.379 111.621V111.637L484.366 111.629V111.645L484.351 111.637V111.653L484.337 111.645V111.661L484.322 111.653V111.669L484.309 111.661V111.677L484.294 111.669V111.685L484.279 111.677V111.695L484.265 111.685V111.701L484.251 111.693V111.711L484.237 111.701V111.719L484.222 111.709V111.725L484.207 111.717V111.735L484.194 111.725V111.743L484.179 111.733V111.751L484.165 111.743V111.758L484.15 111.751V111.766L484.137 111.757V111.774L484.122 111.766V111.782L484.107 111.774V111.79L484.093 111.782V111.798L484.078 111.79V111.806L484.063 111.798V111.814L484.049 111.806V111.822L484.035 111.814V111.83L484.021 111.822V111.838L484.006 111.83V111.846L483.991 111.838V111.854L483.978 111.846V111.862L483.963 111.854V111.87L483.949 111.862V111.878L483.934 111.87V111.888L483.921 111.878V111.894L483.906 111.886V111.902L483.891 111.894V111.912L483.877 111.902V111.918L483.863 111.912V111.928L483.849 111.918V111.936L483.834 111.926V111.944L483.819 111.936V111.951L483.806 111.944V111.959L483.791 111.95V111.967L483.777 111.959V111.975L483.762 111.967V111.983L483.749 111.975V111.991L483.734 111.983V111.999L483.718 111.991V112.007L483.703 111.999V112.015L483.69 112.007V112.023L483.675 112.015V112.031L483.661 112.023V112.039L483.647 112.031V112.047L483.633 112.039V112.057L483.618 112.047V112.063L483.603 112.055V112.073L483.59 112.063V112.081L483.575 112.071V112.087L483.561 112.081V112.097L483.546 112.087V112.105L483.533 112.095V112.111L483.518 112.105V112.121L483.503 112.111V112.129L483.489 112.119V112.137L483.475 112.129V112.145L483.461 112.137V112.152L483.446 112.145V112.16L483.431 112.152V112.168L483.418 112.16V112.176L483.403 112.168V112.184L483.389 112.176V112.192L483.373 112.184V112.2L483.359 112.192V112.208L483.345 112.2V112.216L483.33 112.208V112.224L483.315 112.216V112.232L483.302 112.224V112.24L483.287 112.232V112.25L483.273 112.24V112.256L483.259 112.248V112.266L483.245 112.256V112.274L483.23 112.264V112.28L483.215 112.274V112.29L483.202 112.28V112.298L483.188 112.288V112.306L483.173 112.298V112.314L483.158 112.306V112.322L483.145 112.312V112.33L483.13 112.322V112.338L483.116 112.33V112.346L483.101 112.338V112.353L483.088 112.346V112.361L483.073 112.353V112.369L483.058 112.361V112.377L483.044 112.369V112.385L483.03 112.377V112.393L483.016 112.385V112.401L483.001 112.393V112.409L482.985 112.401V112.417L482.972 112.409V112.425L482.957 112.417V112.435L482.942 112.425V112.443L482.928 112.433V112.449L482.914 112.443V112.459L482.9 112.449V112.467L482.885 112.457V112.473L482.87 112.467V112.483L482.857 112.473V112.491L482.842 112.481V112.499L482.828 112.491V112.507L482.814 112.499V112.515L482.8 112.507V112.523L482.785 112.515V112.531L482.77 112.523V112.539L482.757 112.531V112.547L482.742 112.539V112.554L482.728 112.547V112.562L482.713 112.554V112.57L482.7 112.562V112.578L482.685 112.57V112.586L482.67 112.578V112.594L482.656 112.586V112.604L482.642 112.594V112.61L482.628 112.602V112.618L482.612 112.61V112.628L482.597 112.618V112.636L482.584 112.626V112.642L482.569 112.636V112.652L482.554 112.642V112.66L482.54 112.65V112.668L482.526 112.66V112.676L482.512 112.666V112.684L482.497 112.676V112.692L482.482 112.684V112.7L482.469 112.692V112.708L482.454 112.7V112.716L482.44 112.708V112.724L482.426 112.716V112.732L482.412 112.724V112.74L482.397 112.732V112.748L482.382 112.74V112.755L482.369 112.748V112.763L482.354 112.755V112.771L482.34 112.763V112.779L482.325 112.771V112.787L482.312 112.779V112.797L482.297 112.787V112.805L482.282 112.795V112.811L482.266 112.805V112.821L482.253 112.811V112.829L482.238 112.819V112.835L482.224 112.829V112.845L482.209 112.835V117.06C486.452 119.913 489.048 124.732 489.048 129.879C489.048 131.512 488.487 133.031 487.488 134.232C487.172 134.277 486.855 134.301 486.536 134.301V134.309L486.522 134.31V134.318H486.507V134.325L486.492 134.326V134.333L486.479 134.334V134.342H486.464V134.35H486.45V134.358H486.435V134.366H486.422V134.374H486.407V134.382H486.392V134.39H486.378V134.398H486.364V134.406L486.35 134.407V134.414H486.335V134.422H486.32V134.43L486.307 134.431V134.438H486.292V134.446H486.276V134.454L486.262 134.455V134.462L486.248 134.463V134.47L486.234 134.471V134.478L486.219 134.479V134.486L486.204 134.487V134.494L486.191 134.495V134.502L486.176 134.503V134.511H486.162V134.519H486.147V134.526L486.134 134.527V134.535H486.119V134.543H486.104V134.551H486.091V134.559H486.076V134.567H486.062V134.575H486.047V134.583H486.034V134.591H486.019V134.599L486.004 134.6V134.607H485.99V134.615H485.976V134.623L485.962 134.624V134.631H485.947V134.639H485.932V134.647L485.918 134.648V134.656H485.903V134.663L485.888 134.664V134.671L485.874 134.672V134.68H485.86V134.687L485.846 134.688V134.695L485.831 134.696V134.704H485.816V134.712H485.803V134.72H485.788V134.728H485.774V134.736H485.759V134.744H485.746V134.752H485.731V134.76H485.716V134.768H485.703V134.776H485.688V134.784H485.674V134.792L485.659 134.793V134.8H485.646V134.808H485.631V134.816L485.616 134.817V134.824H485.602V134.832L485.588 134.833V134.84L485.574 134.841V134.849H485.558V134.856L485.543 134.857V134.864L485.53 134.865V134.873H485.515V134.88L485.5 134.881V134.889H485.486V134.897H485.472V134.905H485.458V134.913H485.443V134.921H485.428V134.929H485.415V134.937H485.4V134.945H485.386V134.953H485.371V134.961L485.358 134.962V134.969H485.343V134.977H485.329V134.985L485.314 134.986V134.993H485.301V135.001L485.286 135.002V135.009L485.271 135.01V135.018H485.258V135.025L485.243 135.026V135.033L485.229 135.034V135.042H485.214V135.049L485.201 135.05V135.057L485.185 135.058V135.066H485.17V135.073L485.155 135.074V135.082H485.142V135.09H485.127V135.098H485.113V135.106H485.098V135.114H485.085V135.122H485.07V135.13H485.055V135.138H485.041V135.146H485.027V135.154L485.013 135.155V135.162H484.998V135.17H484.983V135.178L484.97 135.179V135.186H484.955V135.194L484.941 135.195V135.202L484.926 135.203V135.211H484.913V135.218L484.898 135.219V135.226L484.883 135.227V135.235H484.87V135.242L484.855 135.243V135.251H484.841V135.259H484.825V135.267H484.811V135.275H484.797V135.283H484.782V135.291H484.767V135.299H484.754V135.307H484.739V135.315H484.725V135.323H484.71V135.331H484.697V135.339L484.682 135.34V135.347L484.667 135.348V135.355H484.653V135.363L484.639 135.364V135.371L484.625 135.372V135.379H484.61V135.387L484.595 135.388V135.395L484.582 135.396V135.404H484.567V135.411L484.553 135.412V135.419L484.538 135.42V135.428H484.525V135.435L484.51 135.436V135.444H484.495V135.452H484.481V135.46H484.466V135.468H484.451V135.476H484.437V135.484H484.423V135.492H484.409V135.5H484.394V135.508H484.379V135.516L484.366 135.518V135.524H484.351V135.532H484.337V135.54L484.322 135.541V135.548H484.309V135.556L484.294 135.557V135.564L484.279 135.565V135.572H484.265V135.58L484.251 135.581V135.588L484.237 135.589V135.597H484.222V135.604L484.207 135.605V135.613H484.194V135.621H484.179V135.628L484.165 135.629V135.637H484.15V135.645H484.137V135.653H484.122V135.661H484.107V135.669H484.093V135.677H484.078V135.685H484.063V135.693H484.049V135.701L484.035 135.703V135.709L484.021 135.711V135.717H484.006V135.725L483.991 135.727V135.733L483.978 135.734V135.741H483.963V135.749L483.949 135.75V135.757L483.934 135.758V135.766H483.921V135.773L483.906 135.774V135.782H483.891V135.79H483.877V135.797L483.863 135.798V135.806H483.849V135.814H483.834V135.822H483.819V135.83H483.806V135.838H483.791V135.846H483.777V135.854H483.762V135.862H483.749V135.87H483.734V135.878H483.718V135.886H483.703V135.894L483.69 135.896V135.902L483.675 135.904V135.91H483.661V135.918L483.647 135.92V135.926L483.633 135.928V135.934L483.618 135.935V135.942L483.603 135.943V135.951H483.59V135.959H483.575V135.966L483.561 135.967V135.975H483.546V135.983H483.533V135.99L483.518 135.991V135.999H483.503V136.007H483.489V136.015H483.475V136.023H483.461V136.031H483.446V136.039H483.431V136.047H483.418V136.055H483.403V136.063L483.389 136.065V136.071H483.373V136.079H483.359V136.087L483.345 136.089V136.095L483.33 136.097V136.103H483.315V136.111L483.302 136.113V136.121H483.287V136.127L483.273 136.129V136.135L483.259 136.136V136.144H483.245V136.152H483.23V136.159L483.215 136.16V136.168H483.202V136.176H483.188V136.184H483.173V136.192H483.158V136.2H483.145V136.208H483.13V136.216H483.116V136.224H483.101V136.232L483.088 136.234V136.24H483.073V136.248H483.058V136.256L483.044 136.258V136.264L483.03 136.266V136.272H483.016V136.28L483.001 136.282V136.288L482.985 136.29V136.296L482.972 136.298V136.304L482.957 136.306V136.314H482.942V136.322H482.928V136.328L482.914 136.33V136.337H482.9V136.345H482.885V136.352L482.87 136.353V136.361H482.857V136.369H482.842V136.377H482.828V136.385H482.814V136.393H482.8V136.401H482.785V136.409H482.77V136.417H482.757V136.425L482.742 136.427V136.433H482.728V136.441H482.713V136.449L482.7 136.451V136.457L482.685 136.459V136.465H482.67V136.473L482.656 136.475V136.483H482.642V136.489L482.628 136.491V136.497L482.612 136.499V136.507H482.597V136.515H482.584V136.521L482.569 136.523V136.531H482.554V136.538H482.54V136.546H482.526V136.554H482.512V136.562H482.497V136.57H482.482V136.578H482.469V136.586H482.454V136.594L482.44 136.596V136.602H482.426V136.61H482.412V136.618L482.397 136.62V136.626H482.382V136.634H482.369V136.642L482.354 136.644V136.65L482.34 136.652V136.658L482.325 136.66V136.666L482.312 136.668V136.676H482.297V136.682L482.282 136.684V136.69L482.266 136.692V136.7H482.253V136.708H482.238V136.716H482.224V136.724H482.209V140.349C484.007 140.348 485.807 139.876 487.444 138.931L487.448 138.928L487.459 138.923L487.463 138.92L487.474 138.915L487.478 138.912L487.487 138.907L487.491 138.904L487.502 138.899L487.506 138.896L487.516 138.891L487.52 138.888L487.531 138.881L487.536 138.879L487.544 138.873L487.548 138.872L487.559 138.867L487.564 138.863L487.573 138.857L487.579 138.855L487.588 138.849L487.592 138.847L487.601 138.841L487.607 138.84L487.617 138.833L487.621 138.831L487.632 138.825L487.636 138.823L487.647 138.817L487.649 138.815L487.66 138.809L487.664 138.807L487.675 138.801L487.679 138.799L487.689 138.793L487.693 138.791L487.703 138.785L487.707 138.783L487.717 138.777L487.721 138.775L487.732 138.769L487.736 138.767L487.747 138.761L487.751 138.759L487.76 138.753L487.764 138.751L487.775 138.745L487.779 138.743L487.789 138.737L487.793 138.733L487.804 138.73L487.808 138.727L487.817 138.722L487.821 138.719L487.832 138.712L487.836 138.71L487.847 138.706L487.851 138.703L487.861 138.698L487.865 138.695L487.875 138.688L487.88 138.686L487.889 138.68L487.893 138.679L487.904 138.674L487.909 138.67L487.919 138.664L487.924 138.662L487.932 138.656L487.936 138.654L487.947 138.648L487.952 138.646L487.961 138.64L487.967 138.638L487.977 138.632L487.98 138.63L487.991 138.624L487.995 138.622L488.005 138.616L488.009 138.614L488.02 138.608L488.024 138.606L488.035 138.6L488.037 138.598L488.048 138.592L488.052 138.59L488.063 138.584L488.067 138.582L488.077 138.576L488.081 138.574L488.092 138.568L488.095 138.566L488.105 138.56L488.109 138.558L488.12 138.552L488.124 138.55L488.135 138.543L488.139 138.542L488.148 138.536L488.152 138.534L488.163 138.529L488.167 138.526L488.177 138.519L488.181 138.517L488.192 138.513L488.196 138.51L488.205 138.503L488.209 138.501L488.22 138.495L488.224 138.493L488.235 138.487L488.239 138.485L488.249 138.479L488.253 138.477L488.263 138.471L488.268 138.469L488.277 138.463L488.281 138.461L488.292 138.455L488.297 138.453L488.307 138.447L488.312 138.445L488.32 138.439L488.325 138.437L488.335 138.431L488.34 138.429L488.349 138.423L488.365 138.415L488.369 138.413L488.379 138.407L488.383 138.405L488.393 138.399L488.397 138.397L488.408 138.391L488.412 138.389L488.423 138.383L488.425 138.381L488.436 138.374L488.44 138.373L488.451 138.367L488.455 138.365L488.465 138.359L488.469 138.357L488.48 138.35L488.483 138.347L488.493 138.343L488.497 138.341L488.508 138.335L488.512 138.332L488.523 138.326L488.527 138.324L488.536 138.318L488.54 138.317L488.551 138.31L488.555 138.309L488.565 138.302L488.569 138.3L488.58 138.294L488.584 138.292L488.593 138.286L488.597 138.284L488.608 138.278L488.612 138.276L488.623 138.27L488.628 138.268L488.637 138.262L488.641 138.26L488.651 138.254L488.656 138.252L488.665 138.246L488.671 138.244L488.68 138.238L488.685 138.236L488.695 138.23L488.7 138.228L488.709 138.222L488.713 138.22L488.724 138.214L488.728 138.212L488.739 138.206L488.743 138.204L488.753 138.198L488.757 138.196L488.767 138.19L488.771 138.188L488.781 138.181L488.785 138.18L488.796 138.174L488.8 138.172L488.811 138.166L488.813 138.164L488.824 138.157L488.828 138.154L488.839 138.15L488.843 138.148L488.853 138.141L488.857 138.138L488.868 138.133L488.871 138.131L488.881 138.125L488.885 138.124L488.896 138.117L488.9 138.115L488.911 138.109L488.915 138.107L488.925 138.101L488.928 138.099L488.939 138.093L488.943 138.091L488.953 138.085L488.957 138.083L488.968 138.077L488.972 138.075L488.981 138.069L488.987 138.067L488.996 138.061L489 138.059L489.011 138.053L489.016 138.051L489.025 138.045L489.031 138.043L489.039 138.037L489.044 138.035L489.053 138.029L489.059 138.027L489.068 138.021L489.084 138.013L489.088 138.011L489.097 138.005L489.101 138.003L489.112 137.997L489.116 137.995L489.127 137.988L489.131 137.985L489.141 137.981L489.145 137.979L489.155 137.973L489.159 137.969L489.169 137.964L489.173 137.961L489.184 137.957L489.188 137.955L489.199 137.948L489.203 137.947L489.212 137.94L489.216 137.937L489.227 137.932L489.231 137.93L489.241 137.924L489.245 137.922L489.256 137.916L489.259 137.914L489.269 137.908L489.273 137.906L489.284 137.9L489.288 137.898L489.299 137.892L489.303 137.89L489.313 137.884L489.316 137.882L489.327 137.876L489.332 137.874L489.341 137.868L489.345 137.866L489.361 137.858L489.369 137.852L489.375 137.85L489.384 137.844L489.388 137.842L489.399 137.836L489.404 137.834L489.413 137.828L489.419 137.826L489.427 137.819L489.432 137.818L489.441 137.812L489.447 137.81L489.457 137.804L489.461 137.8L489.472 137.795L489.476 137.792L489.485 137.788L489.489 137.786L489.5 137.779L489.504 137.776L489.515 137.771L489.519 137.768L489.529 137.763L489.533 137.762L489.543 137.755L489.547 137.752L489.557 137.747L489.561 137.744L489.572 137.739L489.576 137.736L489.587 137.731L489.591 137.729L489.6 137.723L489.604 137.721L489.615 137.715L489.619 137.713L489.629 137.707L489.633 137.705L489.644 137.699L489.647 137.697L489.657 137.691L489.661 137.689L489.672 137.683L489.676 137.681L489.687 137.675L489.691 137.673L489.701 137.667L489.704 137.665L489.715 137.659L489.72 137.657L489.729 137.651L489.733 137.649L489.744 137.643L489.749 137.641L489.758 137.635L489.761 137.633L489.772 137.626L489.777 137.625L489.786 137.619L489.792 137.617L489.801 137.61L489.806 137.607L489.816 137.602L489.82 137.599L489.83 137.595L489.834 137.593L489.845 137.586L489.849 137.583L489.86 137.578L489.864 137.575L489.873 137.57L489.877 137.567L489.888 137.562L489.892 137.559L489.902 137.554L489.906 137.551L489.917 137.546L489.921 137.543L489.93 137.538L489.934 137.535L489.945 137.53L489.949 137.528L489.96 137.522L489.964 137.52L489.974 137.514L489.978 137.512L489.988 137.506L489.992 137.504L490.002 137.498L490.006 137.496L490.017 137.49L490.021 137.488L490.032 137.482L490.036 137.48L490.045 137.474L490.049 137.472L490.06 137.466L490.064 137.464L490.074 137.458L490.078 137.456L490.089 137.45L490.092 137.448L490.102 137.442L490.108 137.438L490.117 137.433L490.121 137.43L490.132 137.426L490.137 137.424L490.146 137.417L490.15 137.414L490.16 137.409L490.165 137.406L490.176 137.402L490.18 137.4L490.19 137.393L490.194 137.39L490.204 137.385L490.208 137.382L490.218 137.377L490.222 137.374L490.233 137.369L490.237 137.366L490.248 137.361L490.252 137.358L490.261 137.353L490.265 137.35L490.276 137.345L490.28 137.342L490.29 137.337L490.294 137.334L490.305 137.329L490.309 137.327L490.318 137.321L490.322 137.319L490.333 137.313L490.337 137.311L490.348 137.305L490.352 137.303L490.362 137.297L490.366 137.295L490.376 137.289L490.38 137.287L490.39 137.281L490.394 137.279L490.405 137.272L490.409 137.269L490.42 137.264L490.424 137.263L490.433 137.257L490.438 137.255L490.448 137.248L490.452 137.245L490.462 137.24L490.466 137.237L490.477 137.233L490.48 137.231L490.49 137.224L490.496 137.221L490.505 137.216L490.509 137.213L490.52 137.209L490.525 137.205L490.534 137.2L490.538 137.197L490.548 137.192L490.553 137.189L490.564 137.184L490.568 137.181L490.578 137.176L490.582 137.173L490.592 137.168L490.596 137.165L490.606 137.16L490.61 137.157L490.621 137.152L490.625 137.149L490.636 137.144L490.64 137.141L490.649 137.136L490.653 137.134L490.664 137.128L490.668 137.126L490.678 137.12L490.682 137.118L490.693 137.112L490.697 137.11L490.706 137.104L490.71 137.102L490.721 137.096L490.725 137.094L490.736 137.088L490.74 137.086L490.75 137.079L490.754 137.076L490.764 137.071L490.768 137.07L490.778 137.064L490.782 137.062L490.793 137.055L490.797 137.054L490.808 137.047L490.813 137.044L490.821 137.04L490.826 137.036L490.836 137.031L490.84 137.028L490.85 137.023L490.856 137.02L490.865 137.015L490.869 137.014L490.878 137.007L490.884 137.004L490.893 136.999L490.898 136.996L490.909 136.991L490.913 136.988L490.924 136.983L490.926 136.98L490.937 136.975L490.941 136.972L490.952 136.967L490.956 136.964L490.966 136.959L490.97 136.956L490.98 136.951L490.984 136.948L490.994 136.943L490.998 136.94L491.009 136.935L491.013 136.933L491.024 136.927L491.028 136.925L491.037 136.919L491.041 136.917L491.052 136.91L491.056 136.907L491.066 136.903L491.07 136.901L491.081 136.895L491.085 136.893L491.094 136.886L491.098 136.885L491.109 136.878L491.113 136.877L491.124 136.871L491.128 136.869L491.138 136.862L491.142 136.859L491.152 136.854L491.156 136.851L491.166 136.847L491.172 136.843L491.181 136.838L491.185 136.835L491.196 136.83L491.201 136.827L491.209 136.822L491.213 136.819L491.224 136.814L491.229 136.811L491.238 136.806L491.244 136.803L491.253 136.798L491.258 136.795L491.266 136.79L491.27 136.787L491.282 136.782L491.286 136.779L491.297 136.774L491.301 136.771L491.312 136.766L491.314 136.763L491.325 136.758L491.329 136.755L491.34 136.75L491.344 136.747L491.354 136.741L491.358 136.739L491.369 136.734L491.372 136.732L491.382 136.726L491.386 136.724L491.397 136.717L491.401 136.716L491.412 136.71L491.416 136.708L491.425 136.702L491.429 136.7L491.44 136.693L491.444 136.69L491.454 136.685L491.458 136.682L491.469 136.677L491.473 136.674L491.482 136.669L491.486 136.666L491.497 136.661L491.501 136.658L491.512 136.653L491.516 136.65L491.526 136.645L491.53 136.642L491.54 136.637L491.544 136.634L491.554 136.629L491.56 136.626L491.569 136.621L491.573 136.618L491.584 136.613L491.589 136.61L491.597 136.605L491.601 136.602L491.612 136.597L491.617 136.594L491.626 136.589L491.632 136.586L491.641 136.581L491.646 136.578L491.656 136.573L491.66 136.57L491.67 136.565L491.674 136.562L491.685 136.557L491.689 136.554L491.7 136.549L491.702 136.545L491.713 136.541L491.717 136.538L491.728 136.533L491.732 136.531L491.742 136.524L491.746 136.523L491.757 136.516L491.76 136.515L491.77 136.509C495.044 134.618 497 131.235 497 127.458C497 120.665 493.341 114.337 487.45 110.941Z" fill="#F4F4F4"/>
<path fill-rule="evenodd" clip-rule="evenodd" d="M483.124 113.363L482.209 112.836V117.061C486.452 119.913 489.048 124.732 489.048 129.88C489.048 132.349 487.771 134.561 485.63 135.796C484.559 136.414 483.385 136.723 482.209 136.724V140.35C484.007 140.349 485.807 139.876 487.444 138.931C490.72 137.041 492.675 133.657 492.675 129.88C492.675 123.088 489.015 116.759 483.124 113.363Z" fill="#C6C6C6"/>
<path d="M214.34 128.643L200.254 120.53C199.495 120.091 198.466 120.193 197.392 120.813C196.318 121.433 195.288 122.521 194.53 123.835C192.947 126.576 192.947 129.526 194.53 130.438L211.499 140.211C213.082 141.123 215.639 139.646 217.223 136.905L260.173 62.5563C261.756 59.8157 261.756 56.8656 260.173 55.9538C259.414 55.515 258.385 55.6169 257.311 56.2371C256.237 56.8573 255.207 57.9448 254.449 59.2597L214.34 128.643Z" fill="#E6E6E6" stroke="#E6E6E6" stroke-width="5"/>
<path d="M218.106 130.541L204.013 122.418C203.255 121.978 202.224 122.079 201.15 122.699C200.076 123.318 199.046 124.405 198.287 125.719C196.703 128.459 196.703 131.409 198.287 132.322L215.263 142.108C216.847 143.021 219.406 141.546 220.99 138.806L263.959 64.4901C265.542 61.7507 265.542 58.8006 263.959 57.8875C263.2 57.4482 262.17 57.5493 261.095 58.1687C260.021 58.7881 258.991 59.8748 258.232 61.1891L218.106 130.541Z" fill="white" stroke="white" stroke-width="5"/>
</svg>
